<?xml version="1.0" encoding="UTF-8" standalone="no"?><svg xmlns="http://www.w3.org/2000/svg" xmlns:xlink="http://www.w3.org/1999/xlink" contentStyleType="text/css" height="721px" preserveAspectRatio="none" style="width:1534px;height:721px;background:#FFFFFF;" version="1.1" viewBox="0 0 1534 721" width="1534px" zoomAndPan="magnify"><defs/><g><rect fill="#FFFFFF" height="528.5156" style="stroke:#181818;stroke-width:1.0;" width="10" x="21.5" y="92.6094"/><rect fill="#FFFFFF" height="30.3516" style="stroke:#181818;stroke-width:1.0;" width="10" x="561.5" y="114.9609"/><rect fill="#FFFFFF" height="445.4609" style="stroke:#181818;stroke-width:1.0;" width="10" x="561.5" y="175.6641"/><rect fill="#FFFFFF" height="151.7031" style="stroke:#181818;stroke-width:1.0;" width="10" x="971.5" y="206.0156"/><rect fill="#FFFFFF" height="28" style="stroke:#181818;stroke-width:1.0;" width="10" x="976.5" y="329.7188"/><rect fill="#FFFFFF" height="235.0547" style="stroke:#181818;stroke-width:1.0;" width="10" x="971.5" y="395.0703"/><rect fill="#FFFFFF" height="30" style="stroke:#181818;stroke-width:1.0;" width="10" x="976.5" y="535.7734"/><rect fill="#FFFFFF" height="30" style="stroke:#181818;stroke-width:1.0;" width="10" x="1346.5" y="236.3672"/><rect fill="#FFFFFF" height="94.3516" style="stroke:#181818;stroke-width:1.0;" width="10" x="1346.5" y="535.7734"/><rect fill="#FFFFFF" height="30" style="stroke:#181818;stroke-width:1.0;" width="10" x="1458.5" y="425.4219"/><line style="stroke:#181818;stroke-width:0.5;stroke-dasharray:5.0,5.0;" x1="26" x2="26" y1="82.6094" y2="639.125"/><line style="stroke:#181818;stroke-width:0.5;stroke-dasharray:5.0,5.0;" x1="566.5" x2="566.5" y1="82.6094" y2="639.125"/><line style="stroke:#181818;stroke-width:0.5;stroke-dasharray:5.0,5.0;" x1="976.5" x2="976.5" y1="82.6094" y2="639.125"/><line style="stroke:#181818;stroke-width:0.5;stroke-dasharray:5.0,5.0;" x1="1351.5" x2="1351.5" y1="82.6094" y2="639.125"/><line style="stroke:#181818;stroke-width:0.5;stroke-dasharray:5.0,5.0;" x1="1463.5" x2="1463.5" y1="82.6094" y2="639.125"/><text fill="#000000" font-family="sans-serif" font-size="14" lengthAdjust="spacing" textLength="37" x="5" y="79.5332">Nurse</text><ellipse cx="26.5" cy="13.5" fill="#E2E2F0" rx="8" ry="8" style="stroke:#181818;stroke-width:0.5;"/><path d="M26.5,21.5 L26.5,48.5 M13.5,29.5 L39.5,29.5 M26.5,48.5 L13.5,63.5 M26.5,48.5 L39.5,63.5 " fill="none" style="stroke:#181818;stroke-width:0.5;"/><text fill="#000000" font-family="sans-serif" font-size="14" lengthAdjust="spacing" textLength="37" x="5" y="652.6582">Nurse</text><ellipse cx="26.5" cy="664.2344" fill="#E2E2F0" rx="8" ry="8" style="stroke:#181818;stroke-width:0.5;"/><path d="M26.5,672.2344 L26.5,699.2344 M13.5,680.2344 L39.5,680.2344 M26.5,699.2344 L13.5,714.2344 M26.5,699.2344 L39.5,714.2344 " fill="none" style="stroke:#181818;stroke-width:0.5;"/><rect fill="#E2E2F0" height="31.6094" rx="2.5" ry="2.5" style="stroke:#181818;stroke-width:0.5;" width="234" x="449.5" y="50"/><text fill="#000000" font-family="sans-serif" font-size="14" lengthAdjust="spacing" textLength="220" x="456.5" y="71.5332">:ConsultUsersInTheWaitingRoomUI</text><rect fill="#E2E2F0" height="31.6094" rx="2.5" ry="2.5" style="stroke:#181818;stroke-width:0.5;" width="234" x="449.5" y="638.125"/><text fill="#000000" font-family="sans-serif" font-size="14" lengthAdjust="spacing" textLength="220" x="456.5" y="659.6582">:ConsultUsersInTheWaitingRoomUI</text><rect fill="#E2E2F0" height="31.6094" rx="2.5" ry="2.5" style="stroke:#181818;stroke-width:0.5;" width="284" x="834.5" y="50"/><text fill="#000000" font-family="sans-serif" font-size="14" lengthAdjust="spacing" textLength="270" x="841.5" y="71.5332">:ConsultUsersInTheWaitingRoomController</text><rect fill="#E2E2F0" height="31.6094" rx="2.5" ry="2.5" style="stroke:#181818;stroke-width:0.5;" width="284" x="834.5" y="638.125"/><text fill="#000000" font-family="sans-serif" font-size="14" lengthAdjust="spacing" textLength="270" x="841.5" y="659.6582">:ConsultUsersInTheWaitingRoomController</text><rect fill="#E2E2F0" height="31.6094" rx="2.5" ry="2.5" style="stroke:#181818;stroke-width:0.5;" width="74" x="1314.5" y="50"/><text fill="#000000" font-family="sans-serif" font-size="14" lengthAdjust="spacing" textLength="60" x="1321.5" y="71.5332">Company</text><rect fill="#E2E2F0" height="31.6094" rx="2.5" ry="2.5" style="stroke:#181818;stroke-width:0.5;" width="74" x="1314.5" y="638.125"/><text fill="#000000" font-family="sans-serif" font-size="14" lengthAdjust="spacing" textLength="60" x="1321.5" y="659.6582">Company</text><rect fill="#E2E2F0" height="31.6094" rx="2.5" ry="2.5" style="stroke:#181818;stroke-width:0.5;" width="130" x="1398.5" y="50"/><text fill="#000000" font-family="sans-serif" font-size="14" lengthAdjust="spacing" textLength="116" x="1405.5" y="71.5332">VaccinationCenter</text><rect fill="#E2E2F0" height="31.6094" rx="2.5" ry="2.5" style="stroke:#181818;stroke-width:0.5;" width="130" x="1398.5" y="638.125"/><text fill="#000000" font-family="sans-serif" font-size="14" lengthAdjust="spacing" textLength="116" x="1405.5" y="659.6582">VaccinationCenter</text><rect fill="#FFFFFF" height="528.5156" style="stroke:#181818;stroke-width:1.0;" width="10" x="21.5" y="92.6094"/><rect fill="#FFFFFF" height="30.3516" style="stroke:#181818;stroke-width:1.0;" width="10" x="561.5" y="114.9609"/><rect fill="#FFFFFF" height="445.4609" style="stroke:#181818;stroke-width:1.0;" width="10" x="561.5" y="175.6641"/><rect fill="#FFFFFF" height="151.7031" style="stroke:#181818;stroke-width:1.0;" width="10" x="971.5" y="206.0156"/><rect fill="#FFFFFF" height="28" style="stroke:#181818;stroke-width:1.0;" width="10" x="976.5" y="329.7188"/><rect fill="#FFFFFF" height="235.0547" style="stroke:#181818;stroke-width:1.0;" width="10" x="971.5" y="395.0703"/><rect fill="#FFFFFF" height="30" style="stroke:#181818;stroke-width:1.0;" width="10" x="976.5" y="535.7734"/><rect fill="#FFFFFF" height="30" style="stroke:#181818;stroke-width:1.0;" width="10" x="1346.5" y="236.3672"/><rect fill="#FFFFFF" height="94.3516" style="stroke:#181818;stroke-width:1.0;" width="10" x="1346.5" y="535.7734"/><rect fill="#FFFFFF" height="30" style="stroke:#181818;stroke-width:1.0;" width="10" x="1458.5" y="425.4219"/><polygon fill="#181818" points="549.5,110.9609,559.5,114.9609,549.5,118.9609,553.5,114.9609" style="stroke:#181818;stroke-width:1.0;"/><line style="stroke:#181818;stroke-width:1.0;" x1="31.5" x2="555.5" y1="114.9609" y2="114.9609"/><text fill="#000000" font-family="sans-serif" font-size="13" font-weight="bold" lengthAdjust="spacing" textLength="7" x="38.5" y="110.1045">1</text><text fill="#000000" font-family="sans-serif" font-size="13" lengthAdjust="spacing" textLength="393" x="49.5" y="110.1045">asks to consult the users in the waiting room of a vaccination center</text><polygon fill="#181818" points="42.5,141.3125,32.5,145.3125,42.5,149.3125,38.5,145.3125" style="stroke:#181818;stroke-width:1.0;"/><line style="stroke:#181818;stroke-width:1.0;stroke-dasharray:2.0,2.0;" x1="36.5" x2="565.5" y1="145.3125" y2="145.3125"/><text fill="#000000" font-family="sans-serif" font-size="13" font-weight="bold" lengthAdjust="spacing" textLength="7" x="48.5" y="140.4561">2</text><text fill="#000000" font-family="sans-serif" font-size="13" lengthAdjust="spacing" textLength="202" x="59.5" y="140.4561">requests data (vaccionation center)</text><polygon fill="#181818" points="549.5,171.6641,559.5,175.6641,549.5,179.6641,553.5,175.6641" style="stroke:#181818;stroke-width:1.0;"/><line style="stroke:#181818;stroke-width:1.0;" x1="31.5" x2="555.5" y1="175.6641" y2="175.6641"/><text fill="#000000" font-family="sans-serif" font-size="13" font-weight="bold" lengthAdjust="spacing" textLength="7" x="38.5" y="170.8076">3</text><text fill="#000000" font-family="sans-serif" font-size="13" lengthAdjust="spacing" textLength="122" x="49.5" y="170.8076">types requested data</text><polygon fill="#181818" points="959.5,202.0156,969.5,206.0156,959.5,210.0156,963.5,206.0156" style="stroke:#181818;stroke-width:1.0;"/><line style="stroke:#181818;stroke-width:1.0;" x1="571.5" x2="965.5" y1="206.0156" y2="206.0156"/><text fill="#000000" font-family="sans-serif" font-size="13" font-weight="bold" lengthAdjust="spacing" textLength="7" x="578.5" y="201.1592">4</text><text fill="#000000" font-family="sans-serif" font-size="13" lengthAdjust="spacing" textLength="163" x="589.5" y="201.1592">setVaccinationCenter(index)</text><polygon fill="#181818" points="1334.5,232.3672,1344.5,236.3672,1334.5,240.3672,1338.5,236.3672" style="stroke:#181818;stroke-width:1.0;"/><line style="stroke:#181818;stroke-width:1.0;" x1="981.5" x2="1340.5" y1="236.3672" y2="236.3672"/><text fill="#000000" font-family="sans-serif" font-size="13" font-weight="bold" lengthAdjust="spacing" textLength="7" x="988.5" y="231.5107">5</text><text fill="#000000" font-family="sans-serif" font-size="13" lengthAdjust="spacing" textLength="335" x="999.5" y="231.5107">vaccinationCenterList = company.getVaccinationCenters()</text><line style="stroke:#181818;stroke-width:1.0;" x1="986.5" x2="1028.5" y1="321.7188" y2="321.7188"/><line style="stroke:#181818;stroke-width:1.0;" x1="1028.5" x2="1028.5" y1="321.7188" y2="334.7188"/><line style="stroke:#181818;stroke-width:1.0;" x1="987.5" x2="1028.5" y1="334.7188" y2="334.7188"/><polygon fill="#181818" points="997.5,330.7188,987.5,334.7188,997.5,338.7188,993.5,334.7188" style="stroke:#181818;stroke-width:1.0;"/><text fill="#000000" font-family="sans-serif" font-size="13" font-weight="bold" lengthAdjust="spacing" textLength="7" x="993.5" y="316.8623">6</text><text fill="#000000" font-family="sans-serif" font-size="13" lengthAdjust="spacing" textLength="163" x="1004.5" y="316.8623">setVaccinationCenter(index)</text><polygon fill="#181818" points="959.5,391.0703,969.5,395.0703,959.5,399.0703,963.5,395.0703" style="stroke:#181818;stroke-width:1.0;"/><line style="stroke:#181818;stroke-width:1.0;" x1="571.5" x2="965.5" y1="395.0703" y2="395.0703"/><text fill="#000000" font-family="sans-serif" font-size="13" font-weight="bold" lengthAdjust="spacing" textLength="7" x="578.5" y="390.2139">7</text><text fill="#000000" font-family="sans-serif" font-size="13" lengthAdjust="spacing" textLength="370" x="589.5" y="390.2139">listOfUsersInTheWaitingRoom = listOfUsersInTheWaitingRoom()</text><polygon fill="#181818" points="1446.5,421.4219,1456.5,425.4219,1446.5,429.4219,1450.5,425.4219" style="stroke:#181818;stroke-width:1.0;"/><line style="stroke:#181818;stroke-width:1.0;" x1="981.5" x2="1452.5" y1="425.4219" y2="425.4219"/><text fill="#000000" font-family="sans-serif" font-size="13" font-weight="bold" lengthAdjust="spacing" textLength="7" x="988.5" y="420.5654">8</text><text fill="#000000" font-family="sans-serif" font-size="13" lengthAdjust="spacing" textLength="166" x="999.5" y="420.5654">arrivalsList = getArrivalsList()</text><polygon fill="#181818" points="1334.5,531.7734,1344.5,535.7734,1334.5,539.7734,1338.5,535.7734" style="stroke:#181818;stroke-width:1.0;"/><line style="stroke:#181818;stroke-width:1.0;" x1="986.5" x2="1340.5" y1="535.7734" y2="535.7734"/><text fill="#000000" font-family="sans-serif" font-size="13" font-weight="bold" lengthAdjust="spacing" textLength="7" x="993.5" y="530.917">9</text><text fill="#000000" font-family="sans-serif" font-size="13" lengthAdjust="spacing" textLength="186" x="1004.5" y="530.917">snsUserList = getSNSUserList()</text><polygon fill="#181818" points="37.5,617.125,27.5,621.125,37.5,625.125,33.5,621.125" style="stroke:#181818;stroke-width:1.0;"/><line style="stroke:#181818;stroke-width:1.0;stroke-dasharray:2.0,2.0;" x1="31.5" x2="565.5" y1="621.125" y2="621.125"/><text fill="#000000" font-family="sans-serif" font-size="13" font-weight="bold" lengthAdjust="spacing" textLength="14" x="43.5" y="616.2686">10</text><text fill="#000000" font-family="sans-serif" font-size="13" lengthAdjust="spacing" textLength="488" x="61.5" y="616.2686">shows the list of users that are in the waiting room of the selected vaccination center</text><!--MD5=[1645ea607cbab35d2f78cfd499885ffa]
@startuml
autonumber
'hide footbox
actor "Nurse" as N

participant ":ConsultUsersInTheWaitingRoomUI" as UI
participant ":ConsultUsersInTheWaitingRoomController" as CTRL
participant "Company" as COMPANY
participant "VaccinationCenter" as VC


activate N
N -> UI : asks to consult the users in the waiting room of a vaccination center
activate UI
UI - -> N : requests data (vaccionation center)
deactivate UI

N -> UI : types requested data
activate UI

UI -> CTRL : setVaccinationCenter(index)
activate CTRL

CTRL -> COMPANY : vaccinationCenterList = company.getVaccinationCenters()
activate COMPANY
|||
deactivate COMPANY
CTRL -> CTRL :setVaccinationCenter(index)
activate CTRL
deactivate CTRL


deactivate CTRL

UI -> CTRL : listOfUsersInTheWaitingRoom = listOfUsersInTheWaitingRoom()
activate CTRL
CTRL -> VC : arrivalsList = getArrivalsList()

activate VC
|||

deactivate VC

|||


CTRL -> COMPANY : snsUserList = getSNSUserList()
activate COMPANY
activate CTRL
|||
deactivate CTRL

UI - -> N : shows the list of users that are in the waiting room of the selected vaccination center
deactivate UI

deactivate N

@enduml

@startuml
autonumber
actor "Nurse" as N

participant ":ConsultUsersInTheWaitingRoomUI" as UI
participant ":ConsultUsersInTheWaitingRoomController" as CTRL
participant "Company" as COMPANY
participant "VaccinationCenter" as VC


activate N
N -> UI : asks to consult the users in the waiting room of a vaccination center
activate UI
UI - -> N : requests data (vaccionation center)
deactivate UI

N -> UI : types requested data
activate UI

UI -> CTRL : setVaccinationCenter(index)
activate CTRL

CTRL -> COMPANY : vaccinationCenterList = company.getVaccinationCenters()
activate COMPANY
|||
deactivate COMPANY
CTRL -> CTRL :setVaccinationCenter(index)
activate CTRL
deactivate CTRL


deactivate CTRL

UI -> CTRL : listOfUsersInTheWaitingRoom = listOfUsersInTheWaitingRoom()
activate CTRL
CTRL -> VC : arrivalsList = getArrivalsList()

activate VC
|||

deactivate VC

|||


CTRL -> COMPANY : snsUserList = getSNSUserList()
activate COMPANY
activate CTRL
|||
deactivate CTRL

UI - -> N : shows the list of users that are in the waiting room of the selected vaccination center
deactivate UI

deactivate N

@enduml

PlantUML version 1.2022.4(Sat Apr 09 14:29:17 BST 2022)
(GPL source distribution)
Java Runtime: OpenJDK Runtime Environment
JVM: OpenJDK 64-Bit Server VM
Default Encoding: Cp1252
Language: pt
Country: PT
--></g></svg>