<?xml version="1.0" encoding="UTF-8" standalone="no"?><svg xmlns="http://www.w3.org/2000/svg" xmlns:xlink="http://www.w3.org/1999/xlink" contentScriptType="application/ecmascript" contentStyleType="text/css" height="149px" preserveAspectRatio="none" style="width:713px;height:149px;background:#FFFFFF;" version="1.1" viewBox="0 0 713 149" width="713px" zoomAndPan="magnify"><defs><filter height="300%" id="fhx8ao7248de8" width="300%" x="-1" y="-1"><feGaussianBlur result="blurOut" stdDeviation="2.0"/><feColorMatrix in="blurOut" result="blurOut2" type="matrix" values="0 0 0 0 0 0 0 0 0 0 0 0 0 0 0 0 0 0 .4 0"/><feOffset dx="4.0" dy="4.0" in="blurOut2" result="blurOut3"/><feBlend in="SourceGraphic" in2="blurOut3" mode="normal"/></filter></defs><g><!--MD5=[03960189e81aa2c066c762ffabbee709]
class Receptionist--><rect codeLine="6" fill="#FEFECE" filter="url(#fhx8ao7248de8)" height="40" id="Receptionist" style="stroke:#A80036;stroke-width:1.5;" width="101" x="7" y="51"/><ellipse cx="22" cy="67" fill="#ADD1B2" rx="11" ry="11" style="stroke:#A80036;stroke-width:1.0;"/><path d="M24,63.5 Q24.2031,63 24.4375,62.75 Q24.6719,62.5 24.9375,62.5 Q25.4063,62.5 25.7031,62.7813 Q26,63.0625 26,63.7188 L26,65.2813 Q26,65.9375 25.7188,66.2188 Q25.4375,66.5 25,66.5 Q24.6094,66.5 24.3594,66.3281 Q24.1094,66.1563 24,65.7031 Q23.9531,65.3906 23.7813,65.2188 Q23.4688,64.8906 22.9063,64.7031 Q22.3438,64.5 21.7813,64.5 Q21.0781,64.5 20.4844,64.7813 Q19.9063,65.0625 19.4531,65.6875 Q19,66.3125 19,67.1719 L19,68.0938 Q19,69.125 19.8438,69.8125 Q20.6875,70.5 22.1875,70.5 Q23.0781,70.5 23.7031,70.2969 Q24.0625,70.1875 24.4688,69.8281 Q24.7344,69.625 24.875,69.5625 Q25.0156,69.5 25.1875,69.5 Q25.5156,69.5 25.75,69.7656 Q26,70.0156 26,70.375 Q26,70.7188 25.6563,71.125 Q25.1563,71.7188 24.3594,72.0469 Q23.3125,72.5 22.0313,72.5 Q20.5313,72.5 19.3281,71.9063 Q18.3594,71.4375 17.6719,70.4219 Q17,69.4063 17,68.2031 L17,67.1094 Q17,65.8594 17.5938,64.7656 Q18.2031,63.6719 19.25,63.0938 Q20.3125,62.5 21.5,62.5 Q22.2188,62.5 22.8438,62.75 Q23.4688,63 24,63.5 Z " fill="#000000"/><text fill="#000000" font-family="sans-serif" font-size="12" lengthAdjust="spacing" textLength="69" x="36" y="71.9102">Receptionist</text><line style="stroke:#A80036;stroke-width:1.5;" x1="8" x2="107" y1="83" y2="83"/><!--MD5=[72be06cc7ae02ccc98efe28a50e62246]
class SNSUser--><rect codeLine="8" fill="#FEFECE" filter="url(#fhx8ao7248de8)" height="40" id="SNSUser" style="stroke:#A80036;stroke-width:1.5;" width="84" x="368" y="7"/><ellipse cx="383" cy="23" fill="#ADD1B2" rx="11" ry="11" style="stroke:#A80036;stroke-width:1.0;"/><path d="M385,19.5 Q385.2031,19 385.4375,18.75 Q385.6719,18.5 385.9375,18.5 Q386.4063,18.5 386.7031,18.7813 Q387,19.0625 387,19.7188 L387,21.2813 Q387,21.9375 386.7188,22.2188 Q386.4375,22.5 386,22.5 Q385.6094,22.5 385.3594,22.3281 Q385.1094,22.1563 385,21.7031 Q384.9531,21.3906 384.7813,21.2188 Q384.4688,20.8906 383.9063,20.7031 Q383.3438,20.5 382.7813,20.5 Q382.0781,20.5 381.4844,20.7813 Q380.9063,21.0625 380.4531,21.6875 Q380,22.3125 380,23.1719 L380,24.0938 Q380,25.125 380.8438,25.8125 Q381.6875,26.5 383.1875,26.5 Q384.0781,26.5 384.7031,26.2969 Q385.0625,26.1875 385.4688,25.8281 Q385.7344,25.625 385.875,25.5625 Q386.0156,25.5 386.1875,25.5 Q386.5156,25.5 386.75,25.7656 Q387,26.0156 387,26.375 Q387,26.7188 386.6563,27.125 Q386.1563,27.7188 385.3594,28.0469 Q384.3125,28.5 383.0313,28.5 Q381.5313,28.5 380.3281,27.9063 Q379.3594,27.4375 378.6719,26.4219 Q378,25.4063 378,24.2031 L378,23.1094 Q378,21.8594 378.5938,20.7656 Q379.2031,19.6719 380.25,19.0938 Q381.3125,18.5 382.5,18.5 Q383.2188,18.5 383.8438,18.75 Q384.4688,19 385,19.5 Z " fill="#000000"/><text fill="#000000" font-family="sans-serif" font-size="12" lengthAdjust="spacing" textLength="52" x="397" y="27.9102">SNSUser</text><line style="stroke:#A80036;stroke-width:1.5;" x1="369" x2="451" y1="39" y2="39"/><!--MD5=[04b51d1e29fe1f4d3ca80d37e8801119]
class ListOfArrivals--><rect codeLine="10" fill="#FEFECE" filter="url(#fhx8ao7248de8)" height="40" id="ListOfArrivals" style="stroke:#A80036;stroke-width:1.5;" width="104" x="595" y="95"/><ellipse cx="610" cy="111" fill="#ADD1B2" rx="11" ry="11" style="stroke:#A80036;stroke-width:1.0;"/><path d="M612,107.5 Q612.2031,107 612.4375,106.75 Q612.6719,106.5 612.9375,106.5 Q613.4063,106.5 613.7031,106.7813 Q614,107.0625 614,107.7188 L614,109.2813 Q614,109.9375 613.7188,110.2188 Q613.4375,110.5 613,110.5 Q612.6094,110.5 612.3594,110.3281 Q612.1094,110.1563 612,109.7031 Q611.9531,109.3906 611.7813,109.2188 Q611.4688,108.8906 610.9063,108.7031 Q610.3438,108.5 609.7813,108.5 Q609.0781,108.5 608.4844,108.7813 Q607.9063,109.0625 607.4531,109.6875 Q607,110.3125 607,111.1719 L607,112.0938 Q607,113.125 607.8438,113.8125 Q608.6875,114.5 610.1875,114.5 Q611.0781,114.5 611.7031,114.2969 Q612.0625,114.1875 612.4688,113.8281 Q612.7344,113.625 612.875,113.5625 Q613.0156,113.5 613.1875,113.5 Q613.5156,113.5 613.75,113.7656 Q614,114.0156 614,114.375 Q614,114.7188 613.6563,115.125 Q613.1563,115.7188 612.3594,116.0469 Q611.3125,116.5 610.0313,116.5 Q608.5313,116.5 607.3281,115.9063 Q606.3594,115.4375 605.6719,114.4219 Q605,113.4063 605,112.2031 L605,111.1094 Q605,109.8594 605.5938,108.7656 Q606.2031,107.6719 607.25,107.0938 Q608.3125,106.5 609.5,106.5 Q610.2188,106.5 610.8438,106.75 Q611.4688,107 612,107.5 Z " fill="#000000"/><text fill="#000000" font-family="sans-serif" font-size="12" lengthAdjust="spacing" textLength="72" x="624" y="115.9102">ListOfArrivals</text><line style="stroke:#A80036;stroke-width:1.5;" x1="596" x2="698" y1="127" y2="127"/><!--MD5=[950bab46f39ba9ae59885963abb53c18]
class Arrival--><rect codeLine="12" fill="#FEFECE" filter="url(#fhx8ao7248de8)" height="40" id="Arrival" style="stroke:#A80036;stroke-width:1.5;" width="65" x="377.5" y="95"/><ellipse cx="392.5" cy="111" fill="#ADD1B2" rx="11" ry="11" style="stroke:#A80036;stroke-width:1.0;"/><path d="M394.5,107.5 Q394.7031,107 394.9375,106.75 Q395.1719,106.5 395.4375,106.5 Q395.9063,106.5 396.2031,106.7813 Q396.5,107.0625 396.5,107.7188 L396.5,109.2813 Q396.5,109.9375 396.2188,110.2188 Q395.9375,110.5 395.5,110.5 Q395.1094,110.5 394.8594,110.3281 Q394.6094,110.1563 394.5,109.7031 Q394.4531,109.3906 394.2813,109.2188 Q393.9688,108.8906 393.4063,108.7031 Q392.8438,108.5 392.2813,108.5 Q391.5781,108.5 390.9844,108.7813 Q390.4063,109.0625 389.9531,109.6875 Q389.5,110.3125 389.5,111.1719 L389.5,112.0938 Q389.5,113.125 390.3438,113.8125 Q391.1875,114.5 392.6875,114.5 Q393.5781,114.5 394.2031,114.2969 Q394.5625,114.1875 394.9688,113.8281 Q395.2344,113.625 395.375,113.5625 Q395.5156,113.5 395.6875,113.5 Q396.0156,113.5 396.25,113.7656 Q396.5,114.0156 396.5,114.375 Q396.5,114.7188 396.1563,115.125 Q395.6563,115.7188 394.8594,116.0469 Q393.8125,116.5 392.5313,116.5 Q391.0313,116.5 389.8281,115.9063 Q388.8594,115.4375 388.1719,114.4219 Q387.5,113.4063 387.5,112.2031 L387.5,111.1094 Q387.5,109.8594 388.0938,108.7656 Q388.7031,107.6719 389.75,107.0938 Q390.8125,106.5 392,106.5 Q392.7188,106.5 393.3438,106.75 Q393.9688,107 394.5,107.5 Z " fill="#000000"/><text fill="#000000" font-family="sans-serif" font-size="12" lengthAdjust="spacing" textLength="33" x="406.5" y="115.9102">Arrival</text><line style="stroke:#A80036;stroke-width:1.5;" x1="378.5" x2="441.5" y1="127" y2="127"/><!--MD5=[7690a4971bd8576b261a40a0340b8203]
link Receptionist to SNSUser--><path codeLine="15" d="M108.35,64.74 C177.99,56 303.13,40.29 367.8,32.17 " fill="none" id="Receptionist-SNSUser" style="stroke:#A80036;stroke-width:1.0;"/><polygon fill="#000000" points="178.9611,30.553,169.6204,28.7636,170.3525,34.5957,178.9611,30.553" style="stroke:#000000;stroke-width:1.0;"/><text fill="#000000" font-family="sans-serif" font-size="13" lengthAdjust="spacing" textLength="123" x="183" y="36.4951">registers the arrival of</text><text fill="#000000" font-family="sans-serif" font-size="13" lengthAdjust="spacing" textLength="7" x="115.993" y="78.5045">1</text><text fill="#000000" font-family="sans-serif" font-size="13" lengthAdjust="spacing" textLength="5" x="355.1172" y="47.9589">*</text><!--MD5=[24f82a13fe82ee63074bc80db6bef9fb]
link Receptionist to Arrival--><path codeLine="16" d="M108.35,77.26 C181.49,86.44 315.83,103.3 377.07,110.99 " fill="none" id="Receptionist-Arrival" style="stroke:#A80036;stroke-width:1.0;"/><polygon fill="#000000" points="215.4611,76.7985,206.8524,72.7559,206.1204,78.588,215.4611,76.7985" style="stroke:#000000;stroke-width:1.0;"/><text fill="#000000" font-family="sans-serif" font-size="13" lengthAdjust="spacing" textLength="50" x="219.5" y="81.4951">registers</text><text fill="#000000" font-family="sans-serif" font-size="13" lengthAdjust="spacing" textLength="7" x="115.993" y="92.7851">1</text><text fill="#000000" font-family="sans-serif" font-size="13" lengthAdjust="spacing" textLength="5" x="364.3197" y="125.3964">*</text><!--MD5=[c3cc58c36f0b60d9e076b137d05f4fd6]
link Arrival to ListOfArrivals--><path codeLine="17" d="M442.69,115 C481.66,115 548.3,115 594.62,115 " fill="none" id="Arrival-ListOfArrivals" style="stroke:#A80036;stroke-width:1.0;"/><polygon fill="#000000" points="492,106.1758,482.9549,103.2369,482.9549,109.1147,492,106.1758" style="stroke:#000000;stroke-width:1.0;"/><text fill="#000000" font-family="sans-serif" font-size="13" lengthAdjust="spacing" textLength="68" x="496" y="111.4951">is stored on</text><text fill="#000000" font-family="sans-serif" font-size="13" lengthAdjust="spacing" textLength="5" x="450.3878" y="130.2836">*</text><text fill="#000000" font-family="sans-serif" font-size="13" lengthAdjust="spacing" textLength="7" x="580.1111" y="129.5937">1</text><!--MD5=[eaf843ab942cc8426ff9813518b98b70]
@startuml
hide methods
left to right direction
skinparam classAttributeIconSize 0


class Receptionist

class SNSUser

class ListOfArrivals

class Arrival


Receptionist "1" - - - "*" SNSUser : registers the arrival of >
Receptionist "1" - - - "*" Arrival : registers >
Arrival "*" - - "1" ListOfArrivals : is stored on >


@enduml

PlantUML version 1.2022.1(Tue Feb 01 18:19:58 GMT 2022)
(GPL source distribution)
Java Runtime: OpenJDK Runtime Environment
JVM: OpenJDK 64-Bit Server VM
Default Encoding: Cp1252
Language: pt
Country: PT
--></g></svg>