<?xml version="1.0" encoding="UTF-8" standalone="no"?><svg xmlns="http://www.w3.org/2000/svg" xmlns:xlink="http://www.w3.org/1999/xlink" contentScriptType="application/ecmascript" contentStyleType="text/css" height="1060px" preserveAspectRatio="none" style="width:1316px;height:1060px;background:#FFFFFF;" version="1.1" viewBox="0 0 1316 1060" width="1316px" zoomAndPan="magnify"><defs><filter height="300%" id="f1oijl1gtdkdq2" width="300%" x="-1" y="-1"><feGaussianBlur result="blurOut" stdDeviation="2.0"/><feColorMatrix in="blurOut" result="blurOut2" type="matrix" values="0 0 0 0 0 0 0 0 0 0 0 0 0 0 0 0 0 0 .4 0"/><feOffset dx="4.0" dy="4.0" in="blurOut2" result="blurOut3"/><feBlend in="SourceGraphic" in2="blurOut3" mode="normal"/></filter></defs><g><rect fill="#FFFFFF" filter="url(#f1oijl1gtdkdq2)" height="866.0469" style="stroke:#A80036;stroke-width:1.0;" width="10" x="42" y="99.6094"/><rect fill="#FFFFFF" filter="url(#f1oijl1gtdkdq2)" height="121.0547" style="stroke:#A80036;stroke-width:1.0;" width="10" x="390" y="121.9609"/><rect fill="#FFFFFF" filter="url(#f1oijl1gtdkdq2)" height="60.3516" style="stroke:#A80036;stroke-width:1.0;" width="10" x="390" y="273.3672"/><rect fill="#FFFFFF" filter="url(#f1oijl1gtdkdq2)" height="441.1797" style="stroke:#A80036;stroke-width:1.0;" width="10" x="390" y="364.0703"/><rect fill="#FFFFFF" filter="url(#f1oijl1gtdkdq2)" height="130.0547" style="stroke:#A80036;stroke-width:1.0;" width="10" x="390" y="835.6016"/><rect fill="#FFFFFF" filter="url(#f1oijl1gtdkdq2)" height="60.3516" style="stroke:#A80036;stroke-width:1.0;" width="10" x="715" y="152.3125"/><rect fill="#FFFFFF" filter="url(#f1oijl1gtdkdq2)" height="30" style="stroke:#A80036;stroke-width:1.0;" width="10" x="715" y="303.7188"/><rect fill="#FFFFFF" filter="url(#f1oijl1gtdkdq2)" height="30.3516" style="stroke:#A80036;stroke-width:1.0;" width="10" x="715" y="424.7734"/><rect fill="#FFFFFF" filter="url(#f1oijl1gtdkdq2)" height="30.3516" style="stroke:#A80036;stroke-width:1.0;" width="10" x="715" y="485.4766"/><rect fill="#FFFFFF" filter="url(#f1oijl1gtdkdq2)" height="91.0547" style="stroke:#A80036;stroke-width:1.0;" width="10" x="715" y="562.4375"/><rect fill="#FFFFFF" filter="url(#f1oijl1gtdkdq2)" height="91.0547" style="stroke:#A80036;stroke-width:1.0;" width="10" x="715" y="683.8438"/><rect fill="#FFFFFF" filter="url(#f1oijl1gtdkdq2)" height="60.3516" style="stroke:#A80036;stroke-width:1.0;" width="10" x="715" y="865.9531"/><rect fill="#FFFFFF" filter="url(#f1oijl1gtdkdq2)" height="30" style="stroke:#A80036;stroke-width:1.0;" width="10" x="1040" y="182.6641"/><rect fill="#FFFFFF" filter="url(#f1oijl1gtdkdq2)" height="30.3516" style="stroke:#A80036;stroke-width:1.0;" width="10" x="1160" y="592.7891"/><rect fill="#FFFFFF" filter="url(#f1oijl1gtdkdq2)" height="30" style="stroke:#A80036;stroke-width:1.0;" width="10" x="1160" y="896.3047"/><rect fill="#FFFFFF" filter="url(#f1oijl1gtdkdq2)" height="30.3516" style="stroke:#A80036;stroke-width:1.0;" width="10" x="1270" y="714.1953"/><line style="stroke:#A80036;stroke-width:1.0;stroke-dasharray:5.0,5.0;" x1="47" x2="47" y1="89.6094" y2="974.6563"/><line style="stroke:#A80036;stroke-width:1.0;stroke-dasharray:5.0,5.0;" x1="394.5" x2="394.5" y1="89.6094" y2="974.6563"/><line style="stroke:#A80036;stroke-width:1.0;stroke-dasharray:5.0,5.0;" x1="719.5" x2="719.5" y1="89.6094" y2="974.6563"/><line style="stroke:#A80036;stroke-width:1.0;stroke-dasharray:5.0,5.0;" x1="1045" x2="1045" y1="89.6094" y2="974.6563"/><line style="stroke:#A80036;stroke-width:1.0;stroke-dasharray:5.0,5.0;" x1="1165" x2="1165" y1="89.6094" y2="974.6563"/><line style="stroke:#A80036;stroke-width:1.0;stroke-dasharray:5.0,5.0;" x1="1275" x2="1275" y1="526.7813" y2="974.6563"/><text fill="#000000" font-family="sans-serif" font-size="14" lengthAdjust="spacing" textLength="78" x="5" y="86.5332">Receptionist</text><ellipse cx="47" cy="15" fill="#FEFECE" filter="url(#f1oijl1gtdkdq2)" rx="8" ry="8" style="stroke:#A80036;stroke-width:2.0;"/><path d="M47,23 L47,50 M34,31 L60,31 M47,50 L34,65 M47,50 L60,65 " fill="none" filter="url(#f1oijl1gtdkdq2)" style="stroke:#A80036;stroke-width:2.0;"/><text fill="#000000" font-family="sans-serif" font-size="14" lengthAdjust="spacing" textLength="78" x="5" y="988.1895">Receptionist</text><ellipse cx="47" cy="1001.2656" fill="#FEFECE" filter="url(#f1oijl1gtdkdq2)" rx="8" ry="8" style="stroke:#A80036;stroke-width:2.0;"/><path d="M47,1009.2656 L47,1036.2656 M34,1017.2656 L60,1017.2656 M47,1036.2656 L34,1051.2656 M47,1036.2656 L60,1051.2656 " fill="none" filter="url(#f1oijl1gtdkdq2)" style="stroke:#A80036;stroke-width:2.0;"/><rect fill="#FEFECE" filter="url(#f1oijl1gtdkdq2)" height="31.6094" style="stroke:#A80036;stroke-width:1.5;" width="203" x="291.5" y="53"/><text fill="#000000" font-family="sans-serif" font-size="14" lengthAdjust="spacing" textLength="189" x="298.5" y="74.5332">:RegisterArrivalOfASNSUserUI</text><rect fill="#FEFECE" filter="url(#f1oijl1gtdkdq2)" height="31.6094" style="stroke:#A80036;stroke-width:1.5;" width="203" x="291.5" y="973.6563"/><text fill="#000000" font-family="sans-serif" font-size="14" lengthAdjust="spacing" textLength="189" x="298.5" y="995.1895">:RegisterArrivalOfASNSUserUI</text><rect fill="#FEFECE" filter="url(#f1oijl1gtdkdq2)" height="31.6094" style="stroke:#A80036;stroke-width:1.5;" width="253" x="591.5" y="53"/><text fill="#000000" font-family="sans-serif" font-size="14" lengthAdjust="spacing" textLength="239" x="598.5" y="74.5332">:RegisterArrivalOfASNSUserController</text><rect fill="#FEFECE" filter="url(#f1oijl1gtdkdq2)" height="31.6094" style="stroke:#A80036;stroke-width:1.5;" width="253" x="591.5" y="973.6563"/><text fill="#000000" font-family="sans-serif" font-size="14" lengthAdjust="spacing" textLength="239" x="598.5" y="995.1895">:RegisterArrivalOfASNSUserController</text><rect fill="#FEFECE" filter="url(#f1oijl1gtdkdq2)" height="31.6094" style="stroke:#A80036;stroke-width:1.5;" width="78" x="1004" y="53"/><text fill="#000000" font-family="sans-serif" font-size="14" lengthAdjust="spacing" textLength="64" x="1011" y="74.5332">:Company</text><rect fill="#FEFECE" filter="url(#f1oijl1gtdkdq2)" height="31.6094" style="stroke:#A80036;stroke-width:1.5;" width="78" x="1004" y="973.6563"/><text fill="#000000" font-family="sans-serif" font-size="14" lengthAdjust="spacing" textLength="64" x="1011" y="995.1895">:Company</text><rect fill="#FEFECE" filter="url(#f1oijl1gtdkdq2)" height="31.6094" style="stroke:#A80036;stroke-width:1.5;" width="134" x="1096" y="53"/><text fill="#000000" font-family="sans-serif" font-size="14" lengthAdjust="spacing" textLength="120" x="1103" y="74.5332">:VaccinationCenter</text><rect fill="#FEFECE" filter="url(#f1oijl1gtdkdq2)" height="31.6094" style="stroke:#A80036;stroke-width:1.5;" width="134" x="1096" y="973.6563"/><text fill="#000000" font-family="sans-serif" font-size="14" lengthAdjust="spacing" textLength="120" x="1103" y="995.1895">:VaccinationCenter</text><rect fill="#FEFECE" filter="url(#f1oijl1gtdkdq2)" height="31.6094" style="stroke:#A80036;stroke-width:1.5;" width="58" x="1244" y="973.6563"/><text fill="#000000" font-family="sans-serif" font-size="14" lengthAdjust="spacing" textLength="44" x="1251" y="995.1895">:Arrival</text><rect fill="#FFFFFF" filter="url(#f1oijl1gtdkdq2)" height="866.0469" style="stroke:#A80036;stroke-width:1.0;" width="10" x="42" y="99.6094"/><rect fill="#FFFFFF" filter="url(#f1oijl1gtdkdq2)" height="121.0547" style="stroke:#A80036;stroke-width:1.0;" width="10" x="390" y="121.9609"/><rect fill="#FFFFFF" filter="url(#f1oijl1gtdkdq2)" height="60.3516" style="stroke:#A80036;stroke-width:1.0;" width="10" x="390" y="273.3672"/><rect fill="#FFFFFF" filter="url(#f1oijl1gtdkdq2)" height="441.1797" style="stroke:#A80036;stroke-width:1.0;" width="10" x="390" y="364.0703"/><rect fill="#FFFFFF" filter="url(#f1oijl1gtdkdq2)" height="130.0547" style="stroke:#A80036;stroke-width:1.0;" width="10" x="390" y="835.6016"/><rect fill="#FFFFFF" filter="url(#f1oijl1gtdkdq2)" height="60.3516" style="stroke:#A80036;stroke-width:1.0;" width="10" x="715" y="152.3125"/><rect fill="#FFFFFF" filter="url(#f1oijl1gtdkdq2)" height="30" style="stroke:#A80036;stroke-width:1.0;" width="10" x="715" y="303.7188"/><rect fill="#FFFFFF" filter="url(#f1oijl1gtdkdq2)" height="30.3516" style="stroke:#A80036;stroke-width:1.0;" width="10" x="715" y="424.7734"/><rect fill="#FFFFFF" filter="url(#f1oijl1gtdkdq2)" height="30.3516" style="stroke:#A80036;stroke-width:1.0;" width="10" x="715" y="485.4766"/><rect fill="#FFFFFF" filter="url(#f1oijl1gtdkdq2)" height="91.0547" style="stroke:#A80036;stroke-width:1.0;" width="10" x="715" y="562.4375"/><rect fill="#FFFFFF" filter="url(#f1oijl1gtdkdq2)" height="91.0547" style="stroke:#A80036;stroke-width:1.0;" width="10" x="715" y="683.8438"/><rect fill="#FFFFFF" filter="url(#f1oijl1gtdkdq2)" height="60.3516" style="stroke:#A80036;stroke-width:1.0;" width="10" x="715" y="865.9531"/><rect fill="#FFFFFF" filter="url(#f1oijl1gtdkdq2)" height="30" style="stroke:#A80036;stroke-width:1.0;" width="10" x="1040" y="182.6641"/><rect fill="#FFFFFF" filter="url(#f1oijl1gtdkdq2)" height="30.3516" style="stroke:#A80036;stroke-width:1.0;" width="10" x="1160" y="592.7891"/><rect fill="#FFFFFF" filter="url(#f1oijl1gtdkdq2)" height="30" style="stroke:#A80036;stroke-width:1.0;" width="10" x="1160" y="896.3047"/><rect fill="#FFFFFF" filter="url(#f1oijl1gtdkdq2)" height="30.3516" style="stroke:#A80036;stroke-width:1.0;" width="10" x="1270" y="714.1953"/><polygon fill="#A80036" points="378,117.9609,388,121.9609,378,125.9609,382,121.9609" style="stroke:#A80036;stroke-width:1.0;"/><line style="stroke:#A80036;stroke-width:1.0;" x1="52" x2="384" y1="121.9609" y2="121.9609"/><text fill="#000000" font-family="sans-serif" font-size="13" font-weight="bold" lengthAdjust="spacing" textLength="7" x="59" y="117.1045">1</text><text fill="#000000" font-family="sans-serif" font-size="13" lengthAdjust="spacing" textLength="145" x="70" y="117.1045">asks to register an arrival</text><polygon fill="#A80036" points="703,148.3125,713,152.3125,703,156.3125,707,152.3125" style="stroke:#A80036;stroke-width:1.0;"/><line style="stroke:#A80036;stroke-width:1.0;" x1="400" x2="709" y1="152.3125" y2="152.3125"/><text fill="#000000" font-family="sans-serif" font-size="13" font-weight="bold" lengthAdjust="spacing" textLength="7" x="407" y="147.4561">2</text><text fill="#000000" font-family="sans-serif" font-size="13" lengthAdjust="spacing" textLength="285" x="418" y="147.4561">vaccinationCentersList = getVaccinationCenters()</text><polygon fill="#A80036" points="1028,178.6641,1038,182.6641,1028,186.6641,1032,182.6641" style="stroke:#A80036;stroke-width:1.0;"/><line style="stroke:#A80036;stroke-width:1.0;" x1="725" x2="1034" y1="182.6641" y2="182.6641"/><text fill="#000000" font-family="sans-serif" font-size="13" font-weight="bold" lengthAdjust="spacing" textLength="7" x="732" y="177.8076">3</text><text fill="#000000" font-family="sans-serif" font-size="13" lengthAdjust="spacing" textLength="285" x="743" y="177.8076">vaccinationCentersList = getVaccinationCenters()</text><polygon fill="#A80036" points="63,239.0156,53,243.0156,63,247.0156,59,243.0156" style="stroke:#A80036;stroke-width:1.0;"/><line style="stroke:#A80036;stroke-width:1.0;stroke-dasharray:2.0,2.0;" x1="57" x2="394" y1="243.0156" y2="243.0156"/><text fill="#000000" font-family="sans-serif" font-size="13" font-weight="bold" lengthAdjust="spacing" textLength="7" x="69" y="238.1592">4</text><text fill="#000000" font-family="sans-serif" font-size="13" lengthAdjust="spacing" textLength="303" x="80" y="238.1592">shows a list with all the available vaccination centers</text><polygon fill="#A80036" points="378,269.3672,388,273.3672,378,277.3672,382,273.3672" style="stroke:#A80036;stroke-width:1.0;"/><line style="stroke:#A80036;stroke-width:1.0;" x1="52" x2="384" y1="273.3672" y2="273.3672"/><text fill="#000000" font-family="sans-serif" font-size="13" font-weight="bold" lengthAdjust="spacing" textLength="7" x="59" y="268.5107">5</text><text fill="#000000" font-family="sans-serif" font-size="13" lengthAdjust="spacing" textLength="175" x="70" y="268.5107">selects one vaccination center</text><polygon fill="#A80036" points="703,299.7188,713,303.7188,703,307.7188,707,303.7188" style="stroke:#A80036;stroke-width:1.0;"/><line style="stroke:#A80036;stroke-width:1.0;" x1="400" x2="709" y1="303.7188" y2="303.7188"/><text fill="#000000" font-family="sans-serif" font-size="13" font-weight="bold" lengthAdjust="spacing" textLength="7" x="407" y="298.8623">6</text><text fill="#000000" font-family="sans-serif" font-size="13" lengthAdjust="spacing" textLength="163" x="418" y="298.8623">setVaccinationCenter(index)</text><polygon fill="#A80036" points="63,360.0703,53,364.0703,63,368.0703,59,364.0703" style="stroke:#A80036;stroke-width:1.0;"/><line style="stroke:#A80036;stroke-width:1.0;stroke-dasharray:2.0,2.0;" x1="57" x2="389" y1="364.0703" y2="364.0703"/><text fill="#000000" font-family="sans-serif" font-size="13" font-weight="bold" lengthAdjust="spacing" textLength="7" x="69" y="359.2139">7</text><text fill="#000000" font-family="sans-serif" font-size="13" lengthAdjust="spacing" textLength="157" x="80" y="359.2139">requests data (snsNumber)</text><polygon fill="#A80036" points="378,390.4219,388,394.4219,378,398.4219,382,394.4219" style="stroke:#A80036;stroke-width:1.0;"/><line style="stroke:#A80036;stroke-width:1.0;" x1="52" x2="384" y1="394.4219" y2="394.4219"/><text fill="#000000" font-family="sans-serif" font-size="13" font-weight="bold" lengthAdjust="spacing" textLength="7" x="59" y="389.5654">8</text><text fill="#000000" font-family="sans-serif" font-size="13" lengthAdjust="spacing" textLength="61" x="70" y="389.5654">types data</text><polygon fill="#A80036" points="703,420.7734,713,424.7734,703,428.7734,707,424.7734" style="stroke:#A80036;stroke-width:1.0;"/><line style="stroke:#A80036;stroke-width:1.0;" x1="400" x2="709" y1="424.7734" y2="424.7734"/><text fill="#000000" font-family="sans-serif" font-size="13" font-weight="bold" lengthAdjust="spacing" textLength="7" x="407" y="419.917">9</text><text fill="#000000" font-family="sans-serif" font-size="13" lengthAdjust="spacing" textLength="252" x="418" y="419.917">checkAndSetUserAppointment(snsNumber)</text><polygon fill="#A80036" points="411,451.125,401,455.125,411,459.125,407,455.125" style="stroke:#A80036;stroke-width:1.0;"/><line style="stroke:#A80036;stroke-width:1.0;stroke-dasharray:2.0,2.0;" x1="405" x2="719" y1="455.125" y2="455.125"/><text fill="#000000" font-family="sans-serif" font-size="13" font-weight="bold" lengthAdjust="spacing" textLength="14" x="417" y="450.2686">10</text><text fill="#000000" font-family="sans-serif" font-size="13" lengthAdjust="spacing" textLength="32" x="435" y="450.2686">result</text><polygon fill="#A80036" points="703,481.4766,713,485.4766,703,489.4766,707,485.4766" style="stroke:#A80036;stroke-width:1.0;"/><line style="stroke:#A80036;stroke-width:1.0;" x1="400" x2="709" y1="485.4766" y2="485.4766"/><text fill="#000000" font-family="sans-serif" font-size="13" font-weight="bold" lengthAdjust="spacing" textLength="14" x="407" y="480.6201">11</text><text fill="#000000" font-family="sans-serif" font-size="13" lengthAdjust="spacing" textLength="61" x="425" y="480.6201">setArrival()</text><polygon fill="#A80036" points="1232,511.8281,1242,515.8281,1232,519.8281,1236,515.8281" style="stroke:#A80036;stroke-width:1.0;"/><line style="stroke:#A80036;stroke-width:1.0;stroke-dasharray:2.0,2.0;" x1="720" x2="1238" y1="515.8281" y2="515.8281"/><text fill="#000000" font-family="sans-serif" font-size="13" font-weight="bold" lengthAdjust="spacing" textLength="14" x="727" y="510.9717">12</text><text fill="#000000" font-family="sans-serif" font-size="13" lengthAdjust="spacing" textLength="273" x="745" y="510.9717">arrival = createArrival(snsNumber, vaccineType)</text><rect fill="#FEFECE" filter="url(#f1oijl1gtdkdq2)" height="31.6094" style="stroke:#A80036;stroke-width:1.5;" width="58" x="1244" y="493.4766"/><text fill="#000000" font-family="sans-serif" font-size="14" lengthAdjust="spacing" textLength="44" x="1251" y="515.0098">:Arrival</text><polygon fill="#A80036" points="703,558.4375,713,562.4375,703,566.4375,707,562.4375" style="stroke:#A80036;stroke-width:1.0;"/><line style="stroke:#A80036;stroke-width:1.0;" x1="400" x2="709" y1="562.4375" y2="562.4375"/><text fill="#000000" font-family="sans-serif" font-size="13" font-weight="bold" lengthAdjust="spacing" textLength="14" x="407" y="557.5811">13</text><text fill="#000000" font-family="sans-serif" font-size="13" lengthAdjust="spacing" textLength="221" x="425" y="557.5811">checkIfAlreadyRegistered(snsNumber)</text><polygon fill="#A80036" points="1148,588.7891,1158,592.7891,1148,596.7891,1152,592.7891" style="stroke:#A80036;stroke-width:1.0;"/><line style="stroke:#A80036;stroke-width:1.0;" x1="725" x2="1154" y1="592.7891" y2="592.7891"/><text fill="#000000" font-family="sans-serif" font-size="13" font-weight="bold" lengthAdjust="spacing" textLength="14" x="732" y="587.9326">14</text><text fill="#000000" font-family="sans-serif" font-size="13" lengthAdjust="spacing" textLength="221" x="750" y="587.9326">checkIfAlreadyRegistered(snsNumber)</text><polygon fill="#A80036" points="736,619.1406,726,623.1406,736,627.1406,732,623.1406" style="stroke:#A80036;stroke-width:1.0;"/><line style="stroke:#A80036;stroke-width:1.0;stroke-dasharray:2.0,2.0;" x1="730" x2="1164" y1="623.1406" y2="623.1406"/><text fill="#000000" font-family="sans-serif" font-size="13" font-weight="bold" lengthAdjust="spacing" textLength="14" x="742" y="618.2842">15</text><text fill="#000000" font-family="sans-serif" font-size="13" lengthAdjust="spacing" textLength="32" x="760" y="618.2842">result</text><polygon fill="#A80036" points="411,649.4922,401,653.4922,411,657.4922,407,653.4922" style="stroke:#A80036;stroke-width:1.0;"/><line style="stroke:#A80036;stroke-width:1.0;stroke-dasharray:2.0,2.0;" x1="405" x2="719" y1="653.4922" y2="653.4922"/><text fill="#000000" font-family="sans-serif" font-size="13" font-weight="bold" lengthAdjust="spacing" textLength="14" x="417" y="648.6357">16</text><text fill="#000000" font-family="sans-serif" font-size="13" lengthAdjust="spacing" textLength="29" x="435" y="648.6357">resut</text><polygon fill="#A80036" points="703,679.8438,713,683.8438,703,687.8438,707,683.8438" style="stroke:#A80036;stroke-width:1.0;"/><line style="stroke:#A80036;stroke-width:1.0;" x1="400" x2="709" y1="683.8438" y2="683.8438"/><text fill="#000000" font-family="sans-serif" font-size="13" font-weight="bold" lengthAdjust="spacing" textLength="14" x="407" y="678.9873">17</text><text fill="#000000" font-family="sans-serif" font-size="13" lengthAdjust="spacing" textLength="121" x="425" y="678.9873">checkDateAndTime()</text><polygon fill="#A80036" points="1258,710.1953,1268,714.1953,1258,718.1953,1262,714.1953" style="stroke:#A80036;stroke-width:1.0;"/><line style="stroke:#A80036;stroke-width:1.0;" x1="725" x2="1264" y1="714.1953" y2="714.1953"/><text fill="#000000" font-family="sans-serif" font-size="13" font-weight="bold" lengthAdjust="spacing" textLength="14" x="732" y="709.3389">18</text><text fill="#000000" font-family="sans-serif" font-size="13" lengthAdjust="spacing" textLength="256" x="750" y="709.3389">checkDateAndTime(date, vaccinationCenter)</text><polygon fill="#A80036" points="736,740.5469,726,744.5469,736,748.5469,732,744.5469" style="stroke:#A80036;stroke-width:1.0;"/><line style="stroke:#A80036;stroke-width:1.0;stroke-dasharray:2.0,2.0;" x1="730" x2="1274" y1="744.5469" y2="744.5469"/><text fill="#000000" font-family="sans-serif" font-size="13" font-weight="bold" lengthAdjust="spacing" textLength="14" x="742" y="739.6904">19</text><text fill="#000000" font-family="sans-serif" font-size="13" lengthAdjust="spacing" textLength="32" x="760" y="739.6904">result</text><polygon fill="#A80036" points="411,770.8984,401,774.8984,411,778.8984,407,774.8984" style="stroke:#A80036;stroke-width:1.0;"/><line style="stroke:#A80036;stroke-width:1.0;stroke-dasharray:2.0,2.0;" x1="405" x2="719" y1="774.8984" y2="774.8984"/><text fill="#000000" font-family="sans-serif" font-size="13" font-weight="bold" lengthAdjust="spacing" textLength="14" x="417" y="770.042">20</text><text fill="#000000" font-family="sans-serif" font-size="13" lengthAdjust="spacing" textLength="29" x="435" y="770.042">resut</text><polygon fill="#A80036" points="63,801.25,53,805.25,63,809.25,59,805.25" style="stroke:#A80036;stroke-width:1.0;"/><line style="stroke:#A80036;stroke-width:1.0;stroke-dasharray:2.0,2.0;" x1="57" x2="394" y1="805.25" y2="805.25"/><text fill="#000000" font-family="sans-serif" font-size="13" font-weight="bold" lengthAdjust="spacing" textLength="14" x="69" y="800.3936">21</text><text fill="#000000" font-family="sans-serif" font-size="13" lengthAdjust="spacing" textLength="32" x="87" y="800.3936">result</text><polygon fill="#A80036" points="378,831.6016,388,835.6016,378,839.6016,382,835.6016" style="stroke:#A80036;stroke-width:1.0;"/><line style="stroke:#A80036;stroke-width:1.0;" x1="52" x2="384" y1="835.6016" y2="835.6016"/><text fill="#000000" font-family="sans-serif" font-size="13" font-weight="bold" lengthAdjust="spacing" textLength="14" x="59" y="830.7451">22</text><text fill="#000000" font-family="sans-serif" font-size="13" lengthAdjust="spacing" textLength="109" x="77" y="830.7451">registers the arrival</text><polygon fill="#A80036" points="703,861.9531,713,865.9531,703,869.9531,707,865.9531" style="stroke:#A80036;stroke-width:1.0;"/><line style="stroke:#A80036;stroke-width:1.0;" x1="400" x2="709" y1="865.9531" y2="865.9531"/><text fill="#000000" font-family="sans-serif" font-size="13" font-weight="bold" lengthAdjust="spacing" textLength="14" x="407" y="861.0967">23</text><text fill="#000000" font-family="sans-serif" font-size="13" lengthAdjust="spacing" textLength="86" x="425" y="861.0967">registerArrival()</text><polygon fill="#A80036" points="1148,892.3047,1158,896.3047,1148,900.3047,1152,896.3047" style="stroke:#A80036;stroke-width:1.0;"/><line style="stroke:#A80036;stroke-width:1.0;" x1="725" x2="1154" y1="896.3047" y2="896.3047"/><text fill="#000000" font-family="sans-serif" font-size="13" font-weight="bold" lengthAdjust="spacing" textLength="14" x="732" y="891.4482">24</text><text fill="#000000" font-family="sans-serif" font-size="13" lengthAdjust="spacing" textLength="119" x="750" y="891.4482">registerArrival(arrival)</text><polygon fill="#A80036" points="63,952.6563,53,956.6563,63,960.6563,59,956.6563" style="stroke:#A80036;stroke-width:1.0;"/><line style="stroke:#A80036;stroke-width:1.0;stroke-dasharray:2.0,2.0;" x1="57" x2="389" y1="956.6563" y2="956.6563"/><text fill="#000000" font-family="sans-serif" font-size="13" font-weight="bold" lengthAdjust="spacing" textLength="14" x="69" y="951.7998">25</text><text fill="#000000" font-family="sans-serif" font-size="13" lengthAdjust="spacing" textLength="152" x="87" y="951.7998">informs operation success</text><!--MD5=[17db5cdc86984859b868f3e9c2e1bd3f]
@startuml
autonumber

actor "Receptionist" as R

participant ":RegisterArrivalOfASNSUserUI" as UI
participant ":RegisterArrivalOfASNSUserController" as CTRL
participant ":Company" as C
participant ":VaccinationCenter" as VC
participant ":Arrival" as A

activate R

R -> UI : asks to register an arrival
activate UI

UI -> CTRL : vaccinationCentersList = getVaccinationCenters()
activate CTRL

CTRL -> C : vaccinationCentersList = getVaccinationCenters()
activate C

deactivate C
deactivate CTRL
UI - -> R : shows a list with all the available vaccination centers
deactivate UI

R -> UI : selects one vaccination center
activate UI

UI -> CTRL : setVaccinationCenter(index)
activate CTRL


deactivate CTRL
deactivate UI

UI - -> R : requests data (snsNumber)
activate UI


R -> UI : types data

UI -> CTRL : checkAndSetUserAppointment(snsNumber)
activate CTRL

CTRL - -> UI : result
deactivate CTRL

UI -> CTRL : setArrival()
activate CTRL

CTRL - - -> A ** : arrival = createArrival(snsNumber, vaccineType)

deactivate CTRL

UI -> CTRL : checkIfAlreadyRegistered(snsNumber)
activate CTRL

CTRL -> VC : checkIfAlreadyRegistered(snsNumber)
activate VC

VC - -> CTRL : result
deactivate VC

CTRL - -> UI : resut
deactivate CTRL

UI -> CTRL : checkDateAndTime()
activate CTRL


CTRL -> A : checkDateAndTime(date, vaccinationCenter)
activate A

A - -> CTRL : result
deactivate A

CTRL - -> UI : resut
deactivate CTRL

UI - -> R : result
deactivate A

deactivate UI


R -> UI : registers the arrival
activate UI

UI -> CTRL : registerArrival()
activate CTRL


CTRL -> VC : registerArrival(arrival)
activate VC

deactivate VC
deactivate CTRL
UI - -> R : informs operation success

@enduml

PlantUML version 1.2022.1(Tue Feb 01 18:19:58 GMT 2022)
(GPL source distribution)
Java Runtime: OpenJDK Runtime Environment
JVM: OpenJDK 64-Bit Server VM
Default Encoding: Cp1252
Language: pt
Country: PT
--></g></svg>