<?xml version="1.0" encoding="UTF-8" standalone="no"?><svg xmlns="http://www.w3.org/2000/svg" xmlns:xlink="http://www.w3.org/1999/xlink" contentScriptType="application/ecmascript" contentStyleType="text/css" height="853px" preserveAspectRatio="none" style="width:730px;height:853px;background:#FFFFFF;" version="1.1" viewBox="0 0 730 853" width="730px" zoomAndPan="magnify"><defs><filter height="300%" id="fcsowa7rq0y00" width="300%" x="-1" y="-1"><feGaussianBlur result="blurOut" stdDeviation="2.0"/><feColorMatrix in="blurOut" result="blurOut2" type="matrix" values="0 0 0 0 0 0 0 0 0 0 0 0 0 0 0 0 0 0 .4 0"/><feOffset dx="4.0" dy="4.0" in="blurOut2" result="blurOut3"/><feBlend in="SourceGraphic" in2="blurOut3" mode="normal"/></filter></defs><g><!--MD5=[7ab50a2bd096837550e4a3b49d8c864e]
class LoadCSVUI--><rect codeLine="3" fill="#FEFECE" filter="url(#fcsowa7rq0y00)" height="131.0156" id="LoadCSVUI" style="stroke:#A80036;stroke-width:1.5;" width="147" x="456" y="7"/><ellipse cx="493.95" cy="23" fill="#ADD1B2" rx="11" ry="11" style="stroke:#A80036;stroke-width:1.0;"/><path d="M495.95,19.5 Q496.1531,19 496.3875,18.75 Q496.6219,18.5 496.8875,18.5 Q497.3563,18.5 497.6531,18.7813 Q497.95,19.0625 497.95,19.7188 L497.95,21.2813 Q497.95,21.9375 497.6688,22.2188 Q497.3875,22.5 496.95,22.5 Q496.5594,22.5 496.3094,22.3281 Q496.0594,22.1563 495.95,21.7031 Q495.9031,21.3906 495.7313,21.2188 Q495.4188,20.8906 494.8563,20.7031 Q494.2938,20.5 493.7313,20.5 Q493.0281,20.5 492.4344,20.7813 Q491.8563,21.0625 491.4031,21.6875 Q490.95,22.3125 490.95,23.1719 L490.95,24.0938 Q490.95,25.125 491.7938,25.8125 Q492.6375,26.5 494.1375,26.5 Q495.0281,26.5 495.6531,26.2969 Q496.0125,26.1875 496.4188,25.8281 Q496.6844,25.625 496.825,25.5625 Q496.9656,25.5 497.1375,25.5 Q497.4656,25.5 497.7,25.7656 Q497.95,26.0156 497.95,26.375 Q497.95,26.7188 497.6063,27.125 Q497.1063,27.7188 496.3094,28.0469 Q495.2625,28.5 493.9813,28.5 Q492.4813,28.5 491.2781,27.9063 Q490.3094,27.4375 489.6219,26.4219 Q488.95,25.4063 488.95,24.2031 L488.95,23.1094 Q488.95,21.8594 489.5438,20.7656 Q490.1531,19.6719 491.2,19.0938 Q492.2625,18.5 493.45,18.5 Q494.1688,18.5 494.7938,18.75 Q495.4188,19 495.95,19.5 Z " fill="#000000"/><text fill="#000000" font-family="sans-serif" font-size="12" lengthAdjust="spacing" textLength="64" x="513.05" y="27.9102">LoadCSVUI</text><line style="stroke:#A80036;stroke-width:1.5;" x1="457" x2="602" y1="39" y2="39"/><line style="stroke:#A80036;stroke-width:1.5;" x1="457" x2="602" y1="47" y2="47"/><ellipse cx="467" cy="58" fill="#84BE84" rx="3" ry="3" style="stroke:#038048;stroke-width:1.0;"/><text fill="#000000" font-family="sans-serif" font-size="11" lengthAdjust="spacing" textLength="24" x="476" y="62.4189">run()</text><ellipse cx="467" cy="71.8359" fill="#84BE84" rx="3" ry="3" style="stroke:#038048;stroke-width:1.0;"/><text fill="#000000" font-family="sans-serif" font-size="11" lengthAdjust="spacing" textLength="70" x="476" y="76.2549">runLoadCSV()</text><ellipse cx="467" cy="85.6719" fill="#84BE84" rx="3" ry="3" style="stroke:#038048;stroke-width:1.0;"/><text fill="#000000" font-family="sans-serif" font-size="11" lengthAdjust="spacing" textLength="102" x="476" y="90.0908">getListOfSNSUsers()</text><ellipse cx="467" cy="99.5078" fill="#84BE84" rx="3" ry="3" style="stroke:#038048;stroke-width:1.0;"/><text fill="#000000" font-family="sans-serif" font-size="11" lengthAdjust="spacing" textLength="115" x="476" y="103.9268">validateFileFormat(path)</text><ellipse cx="467" cy="113.3438" fill="#84BE84" rx="3" ry="3" style="stroke:#038048;stroke-width:1.0;"/><text fill="#000000" font-family="sans-serif" font-size="11" lengthAdjust="spacing" textLength="121" x="476" y="117.7627">validateCSVData(values)</text><ellipse cx="467" cy="127.1797" fill="#84BE84" rx="3" ry="3" style="stroke:#038048;stroke-width:1.0;"/><text fill="#000000" font-family="sans-serif" font-size="11" lengthAdjust="spacing" textLength="118" x="476" y="131.5986">fillSNSUserDto(csvData)</text><!--MD5=[7ceb7033b3c1ff874813cbc84fb79212]
class LoadCSVController--><rect codeLine="12" fill="#FEFECE" filter="url(#fcsowa7rq0y00)" height="89.5078" id="LoadCSVController" style="stroke:#A80036;stroke-width:1.5;" width="169" x="307" y="199"/><ellipse cx="335.95" cy="215" fill="#ADD1B2" rx="11" ry="11" style="stroke:#A80036;stroke-width:1.0;"/><path d="M337.95,211.5 Q338.1531,211 338.3875,210.75 Q338.6219,210.5 338.8875,210.5 Q339.3563,210.5 339.6531,210.7813 Q339.95,211.0625 339.95,211.7188 L339.95,213.2813 Q339.95,213.9375 339.6688,214.2188 Q339.3875,214.5 338.95,214.5 Q338.5594,214.5 338.3094,214.3281 Q338.0594,214.1563 337.95,213.7031 Q337.9031,213.3906 337.7313,213.2188 Q337.4188,212.8906 336.8563,212.7031 Q336.2938,212.5 335.7313,212.5 Q335.0281,212.5 334.4344,212.7813 Q333.8563,213.0625 333.4031,213.6875 Q332.95,214.3125 332.95,215.1719 L332.95,216.0938 Q332.95,217.125 333.7938,217.8125 Q334.6375,218.5 336.1375,218.5 Q337.0281,218.5 337.6531,218.2969 Q338.0125,218.1875 338.4188,217.8281 Q338.6844,217.625 338.825,217.5625 Q338.9656,217.5 339.1375,217.5 Q339.4656,217.5 339.7,217.7656 Q339.95,218.0156 339.95,218.375 Q339.95,218.7188 339.6063,219.125 Q339.1063,219.7188 338.3094,220.0469 Q337.2625,220.5 335.9813,220.5 Q334.4813,220.5 333.2781,219.9063 Q332.3094,219.4375 331.6219,218.4219 Q330.95,217.4063 330.95,216.2031 L330.95,215.1094 Q330.95,213.8594 331.5438,212.7656 Q332.1531,211.6719 333.2,211.0938 Q334.2625,210.5 335.45,210.5 Q336.1688,210.5 336.7938,210.75 Q337.4188,211 337.95,211.5 Z " fill="#000000"/><text fill="#000000" font-family="sans-serif" font-size="12" lengthAdjust="spacing" textLength="106" x="353.05" y="219.9102">LoadCSVController</text><line style="stroke:#A80036;stroke-width:1.5;" x1="308" x2="475" y1="231" y2="231"/><line style="stroke:#A80036;stroke-width:1.5;" x1="308" x2="475" y1="239" y2="239"/><ellipse cx="318" cy="250" fill="#84BE84" rx="3" ry="3" style="stroke:#038048;stroke-width:1.0;"/><text fill="#000000" font-family="sans-serif" font-size="11" lengthAdjust="spacing" textLength="143" x="327" y="254.4189">createSNSUser(SNSUserDto)</text><ellipse cx="318" cy="263.8359" fill="#84BE84" rx="3" ry="3" style="stroke:#038048;stroke-width:1.0;"/><text fill="#000000" font-family="sans-serif" font-size="11" lengthAdjust="spacing" textLength="136" x="327" y="268.2549">saveSNSUser(SNSUserDto)</text><ellipse cx="318" cy="277.6719" fill="#84BE84" rx="3" ry="3" style="stroke:#038048;stroke-width:1.0;"/><text fill="#000000" font-family="sans-serif" font-size="11" lengthAdjust="spacing" textLength="84" x="327" y="282.0908">getSNSUserList()</text><!--MD5=[02e4b9b7573f1156f41e60aa5b4e25a4]
class Company--><rect codeLine="18" fill="#FEFECE" filter="url(#fcsowa7rq0y00)" height="89.5078" id="Company" style="stroke:#A80036;stroke-width:1.5;" width="169" x="236" y="433"/><ellipse cx="289.75" cy="449" fill="#ADD1B2" rx="11" ry="11" style="stroke:#A80036;stroke-width:1.0;"/><path d="M291.75,445.5 Q291.9531,445 292.1875,444.75 Q292.4219,444.5 292.6875,444.5 Q293.1563,444.5 293.4531,444.7813 Q293.75,445.0625 293.75,445.7188 L293.75,447.2813 Q293.75,447.9375 293.4688,448.2188 Q293.1875,448.5 292.75,448.5 Q292.3594,448.5 292.1094,448.3281 Q291.8594,448.1563 291.75,447.7031 Q291.7031,447.3906 291.5313,447.2188 Q291.2188,446.8906 290.6563,446.7031 Q290.0938,446.5 289.5313,446.5 Q288.8281,446.5 288.2344,446.7813 Q287.6563,447.0625 287.2031,447.6875 Q286.75,448.3125 286.75,449.1719 L286.75,450.0938 Q286.75,451.125 287.5938,451.8125 Q288.4375,452.5 289.9375,452.5 Q290.8281,452.5 291.4531,452.2969 Q291.8125,452.1875 292.2188,451.8281 Q292.4844,451.625 292.625,451.5625 Q292.7656,451.5 292.9375,451.5 Q293.2656,451.5 293.5,451.7656 Q293.75,452.0156 293.75,452.375 Q293.75,452.7188 293.4063,453.125 Q292.9063,453.7188 292.1094,454.0469 Q291.0625,454.5 289.7813,454.5 Q288.2813,454.5 287.0781,453.9063 Q286.1094,453.4375 285.4219,452.4219 Q284.75,451.4063 284.75,450.2031 L284.75,449.1094 Q284.75,447.8594 285.3438,446.7656 Q285.9531,445.6719 287,445.0938 Q288.0625,444.5 289.25,444.5 Q289.9688,444.5 290.5938,444.75 Q291.2188,445 291.75,445.5 Z " fill="#000000"/><text fill="#000000" font-family="sans-serif" font-size="12" lengthAdjust="spacing" textLength="53" x="310.25" y="453.9102">Company</text><line style="stroke:#A80036;stroke-width:1.5;" x1="237" x2="404" y1="465" y2="465"/><line style="stroke:#A80036;stroke-width:1.5;" x1="237" x2="404" y1="473" y2="473"/><ellipse cx="247" cy="484" fill="#84BE84" rx="3" ry="3" style="stroke:#038048;stroke-width:1.0;"/><text fill="#000000" font-family="sans-serif" font-size="11" lengthAdjust="spacing" textLength="143" x="256" y="488.4189">createSNSUser(SNSUserDto)</text><ellipse cx="247" cy="497.8359" fill="#84BE84" rx="3" ry="3" style="stroke:#038048;stroke-width:1.0;"/><text fill="#000000" font-family="sans-serif" font-size="11" lengthAdjust="spacing" textLength="136" x="256" y="502.2549">saveSNSUser(SNSUserDto)</text><ellipse cx="247" cy="511.6719" fill="#84BE84" rx="3" ry="3" style="stroke:#038048;stroke-width:1.0;"/><text fill="#000000" font-family="sans-serif" font-size="11" lengthAdjust="spacing" textLength="84" x="256" y="516.0908">getSNSUserList()</text><!--MD5=[435e87b77665633b06f18413f59de7e8]
class SNSUserDto--><rect codeLine="24" fill="#FEFECE" filter="url(#fcsowa7rq0y00)" height="172.5234" id="SNSUserDto" style="stroke:#A80036;stroke-width:1.5;" width="131" x="431" y="667"/><ellipse cx="458.6" cy="683" fill="#ADD1B2" rx="11" ry="11" style="stroke:#A80036;stroke-width:1.0;"/><path d="M460.6,679.5 Q460.8031,679 461.0375,678.75 Q461.2719,678.5 461.5375,678.5 Q462.0063,678.5 462.3031,678.7813 Q462.6,679.0625 462.6,679.7188 L462.6,681.2813 Q462.6,681.9375 462.3188,682.2188 Q462.0375,682.5 461.6,682.5 Q461.2094,682.5 460.9594,682.3281 Q460.7094,682.1563 460.6,681.7031 Q460.5531,681.3906 460.3813,681.2188 Q460.0688,680.8906 459.5063,680.7031 Q458.9438,680.5 458.3813,680.5 Q457.6781,680.5 457.0844,680.7813 Q456.5063,681.0625 456.0531,681.6875 Q455.6,682.3125 455.6,683.1719 L455.6,684.0938 Q455.6,685.125 456.4438,685.8125 Q457.2875,686.5 458.7875,686.5 Q459.6781,686.5 460.3031,686.2969 Q460.6625,686.1875 461.0688,685.8281 Q461.3344,685.625 461.475,685.5625 Q461.6156,685.5 461.7875,685.5 Q462.1156,685.5 462.35,685.7656 Q462.6,686.0156 462.6,686.375 Q462.6,686.7188 462.2563,687.125 Q461.7563,687.7188 460.9594,688.0469 Q459.9125,688.5 458.6313,688.5 Q457.1313,688.5 455.9281,687.9063 Q454.9594,687.4375 454.2719,686.4219 Q453.6,685.4063 453.6,684.2031 L453.6,683.1094 Q453.6,681.8594 454.1938,680.7656 Q454.8031,679.6719 455.85,679.0938 Q456.9125,678.5 458.1,678.5 Q458.8188,678.5 459.4438,678.75 Q460.0688,679 460.6,679.5 Z " fill="#000000"/><text fill="#000000" font-family="sans-serif" font-size="12" lengthAdjust="spacing" textLength="71" x="475.4" y="687.9102">SNSUserDto</text><line style="stroke:#A80036;stroke-width:1.5;" x1="432" x2="561" y1="699" y2="699"/><rect fill="none" height="6" style="stroke:#C82930;stroke-width:1.0;" width="6" x="439" y="707"/><text fill="#000000" font-family="sans-serif" font-size="11" lengthAdjust="spacing" textLength="40" x="451" y="714.4189">strName</text><rect fill="none" height="6" style="stroke:#C82930;stroke-width:1.0;" width="6" x="439" y="720.8359"/><text fill="#000000" font-family="sans-serif" font-size="11" lengthAdjust="spacing" textLength="32" x="451" y="728.2549">strSex</text><rect fill="none" height="6" style="stroke:#C82930;stroke-width:1.0;" width="6" x="439" y="734.6719"/><text fill="#000000" font-family="sans-serif" font-size="11" lengthAdjust="spacing" textLength="57" x="451" y="742.0908">strBirthDate</text><rect fill="none" height="6" style="stroke:#C82930;stroke-width:1.0;" width="6" x="439" y="748.5078"/><text fill="#000000" font-family="sans-serif" font-size="11" lengthAdjust="spacing" textLength="55" x="451" y="755.9268">strAddress</text><rect fill="none" height="6" style="stroke:#C82930;stroke-width:1.0;" width="6" x="439" y="762.3438"/><text fill="#000000" font-family="sans-serif" font-size="11" lengthAdjust="spacing" textLength="80" x="451" y="769.7627">strPhoneNumber</text><rect fill="none" height="6" style="stroke:#C82930;stroke-width:1.0;" width="6" x="439" y="776.1797"/><text fill="#000000" font-family="sans-serif" font-size="11" lengthAdjust="spacing" textLength="37" x="451" y="783.5986">strEmail</text><rect fill="none" height="6" style="stroke:#C82930;stroke-width:1.0;" width="6" x="439" y="790.0156"/><text fill="#000000" font-family="sans-serif" font-size="11" lengthAdjust="spacing" textLength="78" x="451" y="797.4346">snsUserNumber</text><rect fill="none" height="6" style="stroke:#C82930;stroke-width:1.0;" width="6" x="439" y="803.8516"/><text fill="#000000" font-family="sans-serif" font-size="11" lengthAdjust="spacing" textLength="105" x="451" y="811.2705">strCitizenCardNumber</text><rect fill="none" height="6" style="stroke:#C82930;stroke-width:1.0;" width="6" x="439" y="817.6875"/><text fill="#000000" font-family="sans-serif" font-size="11" lengthAdjust="spacing" textLength="63" x="451" y="825.1064">strPassword</text><line style="stroke:#A80036;stroke-width:1.5;" x1="432" x2="561" y1="831.5234" y2="831.5234"/><!--MD5=[72be06cc7ae02ccc98efe28a50e62246]
class SNSUser--><rect codeLine="36" fill="#FEFECE" filter="url(#fcsowa7rq0y00)" height="255.5391" id="SNSUser" style="stroke:#A80036;stroke-width:1.5;" width="155" x="7" y="350"/><ellipse cx="54.25" cy="366" fill="#ADD1B2" rx="11" ry="11" style="stroke:#A80036;stroke-width:1.0;"/><path d="M56.25,362.5 Q56.4531,362 56.6875,361.75 Q56.9219,361.5 57.1875,361.5 Q57.6563,361.5 57.9531,361.7813 Q58.25,362.0625 58.25,362.7188 L58.25,364.2813 Q58.25,364.9375 57.9688,365.2188 Q57.6875,365.5 57.25,365.5 Q56.8594,365.5 56.6094,365.3281 Q56.3594,365.1563 56.25,364.7031 Q56.2031,364.3906 56.0313,364.2188 Q55.7188,363.8906 55.1563,363.7031 Q54.5938,363.5 54.0313,363.5 Q53.3281,363.5 52.7344,363.7813 Q52.1563,364.0625 51.7031,364.6875 Q51.25,365.3125 51.25,366.1719 L51.25,367.0938 Q51.25,368.125 52.0938,368.8125 Q52.9375,369.5 54.4375,369.5 Q55.3281,369.5 55.9531,369.2969 Q56.3125,369.1875 56.7188,368.8281 Q56.9844,368.625 57.125,368.5625 Q57.2656,368.5 57.4375,368.5 Q57.7656,368.5 58,368.7656 Q58.25,369.0156 58.25,369.375 Q58.25,369.7188 57.9063,370.125 Q57.4063,370.7188 56.6094,371.0469 Q55.5625,371.5 54.2813,371.5 Q52.7813,371.5 51.5781,370.9063 Q50.6094,370.4375 49.9219,369.4219 Q49.25,368.4063 49.25,367.2031 L49.25,366.1094 Q49.25,364.8594 49.8438,363.7656 Q50.4531,362.6719 51.5,362.0938 Q52.5625,361.5 53.75,361.5 Q54.4688,361.5 55.0938,361.75 Q55.7188,362 56.25,362.5 Z " fill="#000000"/><text fill="#000000" font-family="sans-serif" font-size="12" lengthAdjust="spacing" textLength="52" x="74.75" y="370.9102">SNSUser</text><line style="stroke:#A80036;stroke-width:1.5;" x1="8" x2="161" y1="382" y2="382"/><rect fill="none" height="6" style="stroke:#C82930;stroke-width:1.0;" width="6" x="15" y="390"/><text fill="#000000" font-family="sans-serif" font-size="11" lengthAdjust="spacing" textLength="40" x="27" y="397.4189">strName</text><rect fill="none" height="6" style="stroke:#C82930;stroke-width:1.0;" width="6" x="15" y="403.8359"/><text fill="#000000" font-family="sans-serif" font-size="11" lengthAdjust="spacing" textLength="32" x="27" y="411.2549">strSex</text><rect fill="none" height="6" style="stroke:#C82930;stroke-width:1.0;" width="6" x="15" y="417.6719"/><text fill="#000000" font-family="sans-serif" font-size="11" lengthAdjust="spacing" textLength="57" x="27" y="425.0908">strBirthDate</text><rect fill="none" height="6" style="stroke:#C82930;stroke-width:1.0;" width="6" x="15" y="431.5078"/><text fill="#000000" font-family="sans-serif" font-size="11" lengthAdjust="spacing" textLength="55" x="27" y="438.9268">strAddress</text><rect fill="none" height="6" style="stroke:#C82930;stroke-width:1.0;" width="6" x="15" y="445.3438"/><text fill="#000000" font-family="sans-serif" font-size="11" lengthAdjust="spacing" textLength="80" x="27" y="452.7627">strPhoneNumber</text><rect fill="none" height="6" style="stroke:#C82930;stroke-width:1.0;" width="6" x="15" y="459.1797"/><text fill="#000000" font-family="sans-serif" font-size="11" lengthAdjust="spacing" textLength="37" x="27" y="466.5986">strEmail</text><rect fill="none" height="6" style="stroke:#C82930;stroke-width:1.0;" width="6" x="15" y="473.0156"/><text fill="#000000" font-family="sans-serif" font-size="11" lengthAdjust="spacing" textLength="78" x="27" y="480.4346">snsUserNumber</text><rect fill="none" height="6" style="stroke:#C82930;stroke-width:1.0;" width="6" x="15" y="486.8516"/><text fill="#000000" font-family="sans-serif" font-size="11" lengthAdjust="spacing" textLength="105" x="27" y="494.2705">strCitizenCardNumber</text><rect fill="none" height="6" style="stroke:#C82930;stroke-width:1.0;" width="6" x="15" y="500.6875"/><text fill="#000000" font-family="sans-serif" font-size="11" lengthAdjust="spacing" textLength="63" x="27" y="508.1064">strPassword</text><line style="stroke:#A80036;stroke-width:1.5;" x1="8" x2="161" y1="514.5234" y2="514.5234"/><ellipse cx="18" cy="525.5234" fill="#84BE84" rx="3" ry="3" style="stroke:#038048;stroke-width:1.0;"/><text fill="#000000" font-family="sans-serif" font-size="11" lengthAdjust="spacing" textLength="102" x="27" y="529.9424">getSnsUserNumber()</text><ellipse cx="18" cy="539.3594" fill="#84BE84" rx="3" ry="3" style="stroke:#038048;stroke-width:1.0;"/><text fill="#000000" font-family="sans-serif" font-size="11" lengthAdjust="spacing" textLength="61" x="27" y="543.7783">getStrEmail()</text><ellipse cx="18" cy="553.1953" fill="#84BE84" rx="3" ry="3" style="stroke:#038048;stroke-width:1.0;"/><text fill="#000000" font-family="sans-serif" font-size="11" lengthAdjust="spacing" textLength="104" x="27" y="557.6143">getStrPhoneNumber()</text><ellipse cx="18" cy="567.0313" fill="#84BE84" rx="3" ry="3" style="stroke:#038048;stroke-width:1.0;"/><text fill="#000000" font-family="sans-serif" font-size="11" lengthAdjust="spacing" textLength="129" x="27" y="571.4502">getStrCitizenCardNumber()</text><ellipse cx="18" cy="580.8672" fill="#84BE84" rx="3" ry="3" style="stroke:#038048;stroke-width:1.0;"/><text fill="#000000" font-family="sans-serif" font-size="11" lengthAdjust="spacing" textLength="89" x="27" y="585.2861">validateSNSUser()</text><ellipse cx="18" cy="594.7031" fill="#84BE84" rx="3" ry="3" style="stroke:#038048;stroke-width:1.0;"/><text fill="#000000" font-family="sans-serif" font-size="11" lengthAdjust="spacing" textLength="45" x="27" y="599.1221">toString()</text><!--MD5=[f8d2b21678b6ea5d90e779ee6463ca37]
class Utils--><rect codeLine="54" fill="#FEFECE" filter="url(#fcsowa7rq0y00)" height="61.8359" id="Utils" style="stroke:#A80036;stroke-width:1.5;" width="133" x="583" y="213"/><ellipse cx="632.75" cy="229" fill="#ADD1B2" rx="11" ry="11" style="stroke:#A80036;stroke-width:1.0;"/><path d="M634.75,225.5 Q634.9531,225 635.1875,224.75 Q635.4219,224.5 635.6875,224.5 Q636.1563,224.5 636.4531,224.7813 Q636.75,225.0625 636.75,225.7188 L636.75,227.2813 Q636.75,227.9375 636.4688,228.2188 Q636.1875,228.5 635.75,228.5 Q635.3594,228.5 635.1094,228.3281 Q634.8594,228.1563 634.75,227.7031 Q634.7031,227.3906 634.5313,227.2188 Q634.2188,226.8906 633.6563,226.7031 Q633.0938,226.5 632.5313,226.5 Q631.8281,226.5 631.2344,226.7813 Q630.6563,227.0625 630.2031,227.6875 Q629.75,228.3125 629.75,229.1719 L629.75,230.0938 Q629.75,231.125 630.5938,231.8125 Q631.4375,232.5 632.9375,232.5 Q633.8281,232.5 634.4531,232.2969 Q634.8125,232.1875 635.2188,231.8281 Q635.4844,231.625 635.625,231.5625 Q635.7656,231.5 635.9375,231.5 Q636.2656,231.5 636.5,231.7656 Q636.75,232.0156 636.75,232.375 Q636.75,232.7188 636.4063,233.125 Q635.9063,233.7188 635.1094,234.0469 Q634.0625,234.5 632.7813,234.5 Q631.2813,234.5 630.0781,233.9063 Q629.1094,233.4375 628.4219,232.4219 Q627.75,231.4063 627.75,230.2031 L627.75,229.1094 Q627.75,227.8594 628.3438,226.7656 Q628.9531,225.6719 630,225.0938 Q631.0625,224.5 632.25,224.5 Q632.9688,224.5 633.5938,224.75 Q634.2188,225 634.75,225.5 Z " fill="#000000"/><text fill="#000000" font-family="sans-serif" font-size="12" lengthAdjust="spacing" textLength="25" x="653.25" y="233.9102">Utils</text><line style="stroke:#A80036;stroke-width:1.5;" x1="584" x2="715" y1="245" y2="245"/><line style="stroke:#A80036;stroke-width:1.5;" x1="584" x2="715" y1="253" y2="253"/><ellipse cx="594" cy="264" fill="#84BE84" rx="3" ry="3" style="stroke:#038048;stroke-width:1.0;"/><text fill="#000000" font-family="sans-serif" font-size="11" lengthAdjust="spacing" textLength="107" x="603" y="268.4189">passwordGenerator()</text><!--MD5=[8ae808d068a8995f06b9b3ec51357f0b]
class AuthFacade--><rect codeLine="58" fill="#FEFECE" filter="url(#fcsowa7rq0y00)" height="75.6719" id="AuthFacade" style="stroke:#A80036;stroke-width:1.5;" width="224" x="171.5" y="715.5"/><ellipse cx="246.75" cy="731.5" fill="#ADD1B2" rx="11" ry="11" style="stroke:#A80036;stroke-width:1.0;"/><path d="M248.75,728 Q248.9531,727.5 249.1875,727.25 Q249.4219,727 249.6875,727 Q250.1563,727 250.4531,727.2813 Q250.75,727.5625 250.75,728.2188 L250.75,729.7813 Q250.75,730.4375 250.4688,730.7188 Q250.1875,731 249.75,731 Q249.3594,731 249.1094,730.8281 Q248.8594,730.6563 248.75,730.2031 Q248.7031,729.8906 248.5313,729.7188 Q248.2188,729.3906 247.6563,729.2031 Q247.0938,729 246.5313,729 Q245.8281,729 245.2344,729.2813 Q244.6563,729.5625 244.2031,730.1875 Q243.75,730.8125 243.75,731.6719 L243.75,732.5938 Q243.75,733.625 244.5938,734.3125 Q245.4375,735 246.9375,735 Q247.8281,735 248.4531,734.7969 Q248.8125,734.6875 249.2188,734.3281 Q249.4844,734.125 249.625,734.0625 Q249.7656,734 249.9375,734 Q250.2656,734 250.5,734.2656 Q250.75,734.5156 250.75,734.875 Q250.75,735.2188 250.4063,735.625 Q249.9063,736.2188 249.1094,736.5469 Q248.0625,737 246.7813,737 Q245.2813,737 244.0781,736.4063 Q243.1094,735.9375 242.4219,734.9219 Q241.75,733.9063 241.75,732.7031 L241.75,731.6094 Q241.75,730.3594 242.3438,729.2656 Q242.9531,728.1719 244,727.5938 Q245.0625,727 246.25,727 Q246.9688,727 247.5938,727.25 Q248.2188,727.5 248.75,728 Z " fill="#000000"/><text fill="#000000" font-family="sans-serif" font-size="12" lengthAdjust="spacing" textLength="65" x="267.25" y="736.4102">AuthFacade</text><line style="stroke:#A80036;stroke-width:1.5;" x1="172.5" x2="394.5" y1="747.5" y2="747.5"/><line style="stroke:#A80036;stroke-width:1.5;" x1="172.5" x2="394.5" y1="755.5" y2="755.5"/><ellipse cx="182.5" cy="766.5" fill="#84BE84" rx="3" ry="3" style="stroke:#038048;stroke-width:1.0;"/><text fill="#000000" font-family="sans-serif" font-size="11" lengthAdjust="spacing" textLength="84" x="191.5" y="770.9189">existsUser(email)</text><ellipse cx="182.5" cy="780.3359" fill="#84BE84" rx="3" ry="3" style="stroke:#038048;stroke-width:1.0;"/><text fill="#000000" font-family="sans-serif" font-size="11" lengthAdjust="spacing" textLength="198" x="191.5" y="784.7549">addUserWithRole(name,email,pwd,roleId)</text><!--MD5=[2b188c7cc4822b9adb6999fad5e09590]
link LoadCSVUI to LoadCSVController--><path codeLine="63" d="M476.93,138.06 C461.57,156.94 445.05,177.23 430.67,194.89 " fill="none" id="LoadCSVUI-to-LoadCSVController" style="stroke:#A80036;stroke-width:1.0;stroke-dasharray:7.0,7.0;"/><polygon fill="#A80036" points="427.44,198.85,436.2198,194.3873,430.593,194.9694,430.0109,189.3426,427.44,198.85" style="stroke:#A80036;stroke-width:1.0;"/><!--MD5=[e5714aa17dd3a37d20afce9b5d0b2be4]
link LoadCSVController to Company--><path codeLine="64" d="M377.98,289.18 C365.84,328.85 348.04,387 335.48,428.06 " fill="none" id="LoadCSVController-to-Company" style="stroke:#A80036;stroke-width:1.0;stroke-dasharray:7.0,7.0;"/><polygon fill="#A80036" points="333.97,432.98,340.418,425.5353,335.4264,428.1968,332.7649,423.2051,333.97,432.98" style="stroke:#A80036;stroke-width:1.0;"/><!--MD5=[20b3f4034d677212e5a7820069aa9b44]
link LoadCSVUI to Utils--><path codeLine="65" d="M575.21,138.06 C592.15,162 610.71,188.21 625.04,208.45 " fill="none" id="LoadCSVUI-to-Utils" style="stroke:#A80036;stroke-width:1.0;stroke-dasharray:7.0,7.0;"/><polygon fill="#A80036" points="628.03,212.67,626.1051,203.0111,625.1455,208.586,619.5706,207.6263,628.03,212.67" style="stroke:#A80036;stroke-width:1.0;"/><!--MD5=[fa77a56c7d710f9d076d15e581c797fc]
link LoadCSVUI to SNSUserDto--><path codeLine="66" d="M527.15,138.18 C523.23,242.97 514.76,456.37 504.5,637 C504.05,644.98 503.54,653.26 503.01,661.57 " fill="none" id="LoadCSVUI-to-SNSUserDto" style="stroke:#A80036;stroke-width:1.0;stroke-dasharray:7.0,7.0;"/><polygon fill="#A80036" points="502.68,666.74,507.2615,658.0217,503.0079,661.7508,499.2788,657.4971,502.68,666.74" style="stroke:#A80036;stroke-width:1.0;"/><!--MD5=[3d124a579a23be6abc820c397a995d99]
link LoadCSVController to SNSUserDto--><path codeLine="67" d="M405.66,289.17 C411.35,307.82 417.69,329.85 422.5,350 C447.82,456 469.36,579.47 482.57,661.42 " fill="none" id="LoadCSVController-to-SNSUserDto" style="stroke:#A80036;stroke-width:1.0;stroke-dasharray:7.0,7.0;"/><polygon fill="#A80036" points="483.42,666.76,485.9307,657.2365,482.6211,661.8242,478.0334,658.5147,483.42,666.76" style="stroke:#A80036;stroke-width:1.0;"/><!--MD5=[57dac69d5225e95d78b78f14066ab0ad]
link Company to SNSUserDto--><path codeLine="68" d="M348.97,523.25 C373.15,560.82 408.61,615.92 438.71,662.69 " fill="none" id="Company-to-SNSUserDto" style="stroke:#A80036;stroke-width:1.0;stroke-dasharray:7.0,7.0;"/><polygon fill="#A80036" points="441.42,666.9,439.9179,657.1664,438.7162,662.6941,433.1885,661.4924,441.42,666.9" style="stroke:#A80036;stroke-width:1.0;"/><!--MD5=[8541e19093b261f1fb452e10841a5807]
reverse link SNSUser to Company--><path codeLine="69" d="M167.12,478 C189.41,478 213.55,478 235.93,478 " fill="none" id="SNSUser-backto-Company" style="stroke:#A80036;stroke-width:1.0;"/><polygon fill="#A80036" points="162.1,478,171.1,482,167.1,478,171.1,474,162.1,478" style="stroke:#A80036;stroke-width:1.0;"/><text fill="#000000" font-family="sans-serif" font-size="13" lengthAdjust="spacing" textLength="37" x="180.5" y="471.4951">knows</text><text fill="#000000" font-family="sans-serif" font-size="13" lengthAdjust="spacing" textLength="5" x="169.9848" y="474.7476">*</text><text fill="#000000" font-family="sans-serif" font-size="13" lengthAdjust="spacing" textLength="7" x="221.0863" y="474.8202">1</text><!--MD5=[717d4b03d3c4372f4eafe5e342a0a7dd]
link Company to AuthFacade--><path codeLine="70" d="M314.51,523.25 C307.53,574.84 296.08,659.51 289.22,710.24 " fill="none" id="Company-to-AuthFacade" style="stroke:#A80036;stroke-width:1.0;stroke-dasharray:7.0,7.0;"/><polygon fill="#A80036" points="288.53,715.34,293.678,706.9437,289.1871,710.3834,285.7474,705.8924,288.53,715.34" style="stroke:#A80036;stroke-width:1.0;"/><!--MD5=[dbb4882b218acea1904ac30b6a71c8f2]
@startuml
'https://plantuml.com/class-diagram

class LoadCSVUI{
+run()
+runLoadCSV()
+getListOfSNSUsers()
+validateFileFormat(path)
+validateCSVData(values)
+fillSNSUserDto(csvData)
}

class LoadCSVController{
+createSNSUser(SNSUserDto)
+saveSNSUser(SNSUserDto)
+getSNSUserList()
}

class Company{
+createSNSUser(SNSUserDto)
+saveSNSUser(SNSUserDto)
+getSNSUserList()
}

class SNSUserDto{
-strName
-strSex
-strBirthDate
-strAddress
-strPhoneNumber
-strEmail
-snsUserNumber
-strCitizenCardNumber
-strPassword
}

class SNSUser{
-strName
-strSex
-strBirthDate
-strAddress
-strPhoneNumber
-strEmail
-snsUserNumber
-strCitizenCardNumber
-strPassword
+getSnsUserNumber()
+getStrEmail()
+getStrPhoneNumber()
+getStrCitizenCardNumber()
+validateSNSUser()
+toString()
}

class Utils{
+passwordGenerator()
}

class AuthFacade{
+existsUser(email)
+addUserWithRole(name,email,pwd,roleId)
}

LoadCSVUI ..> LoadCSVController
LoadCSVController ..> Company
LoadCSVUI ..> Utils
LoadCSVUI ..> SNSUserDto
LoadCSVController ..> SNSUserDto
Company ..> SNSUserDto
Company "1" -left-> "*" SNSUser : knows
Company ..> AuthFacade
@enduml

@startuml

class LoadCSVUI{
+run()
+runLoadCSV()
+getListOfSNSUsers()
+validateFileFormat(path)
+validateCSVData(values)
+fillSNSUserDto(csvData)
}

class LoadCSVController{
+createSNSUser(SNSUserDto)
+saveSNSUser(SNSUserDto)
+getSNSUserList()
}

class Company{
+createSNSUser(SNSUserDto)
+saveSNSUser(SNSUserDto)
+getSNSUserList()
}

class SNSUserDto{
-strName
-strSex
-strBirthDate
-strAddress
-strPhoneNumber
-strEmail
-snsUserNumber
-strCitizenCardNumber
-strPassword
}

class SNSUser{
-strName
-strSex
-strBirthDate
-strAddress
-strPhoneNumber
-strEmail
-snsUserNumber
-strCitizenCardNumber
-strPassword
+getSnsUserNumber()
+getStrEmail()
+getStrPhoneNumber()
+getStrCitizenCardNumber()
+validateSNSUser()
+toString()
}

class Utils{
+passwordGenerator()
}

class AuthFacade{
+existsUser(email)
+addUserWithRole(name,email,pwd,roleId)
}

LoadCSVUI ..> LoadCSVController
LoadCSVController ..> Company
LoadCSVUI ..> Utils
LoadCSVUI ..> SNSUserDto
LoadCSVController ..> SNSUserDto
Company ..> SNSUserDto
Company "1" -left-> "*" SNSUser : knows
Company ..> AuthFacade
@enduml

PlantUML version 1.2022.1(Tue Feb 01 18:19:58 GMT 2022)
(GPL source distribution)
Java Runtime: OpenJDK Runtime Environment
JVM: OpenJDK 64-Bit Server VM
Default Encoding: Cp1252
Language: en
Country: US
--></g></svg>