<?xml version="1.0" encoding="UTF-8" standalone="no"?><svg xmlns="http://www.w3.org/2000/svg" xmlns:xlink="http://www.w3.org/1999/xlink" contentScriptType="application/ecmascript" contentStyleType="text/css" height="1275px" preserveAspectRatio="none" style="width:1604px;height:1275px;background:#FFFFFF;" version="1.1" viewBox="0 0 1604 1275" width="1604px" zoomAndPan="magnify"><defs><filter height="300%" id="fgjzihjezx2nr" width="300%" x="-1" y="-1"><feGaussianBlur result="blurOut" stdDeviation="2.0"/><feColorMatrix in="blurOut" result="blurOut2" type="matrix" values="0 0 0 0 0 0 0 0 0 0 0 0 0 0 0 0 0 0 .4 0"/><feOffset dx="4.0" dy="4.0" in="blurOut2" result="blurOut3"/><feBlend in="SourceGraphic" in2="blurOut3" mode="normal"/></filter></defs><g><rect fill="#FFFFFF" filter="url(#fgjzihjezx2nr)" height="1081.25" style="stroke:#A80036;stroke-width:1.0;" width="10" x="44.5" y="99.6094"/><rect fill="#FFFFFF" filter="url(#fgjzihjezx2nr)" height="30.3516" style="stroke:#A80036;stroke-width:1.0;" width="10" x="332.5" y="121.9609"/><rect fill="#FFFFFF" filter="url(#fgjzihjezx2nr)" height="824.4375" style="stroke:#A80036;stroke-width:1.0;" width="10" x="332.5" y="182.6641"/><rect fill="#FFFFFF" filter="url(#fgjzihjezx2nr)" height="134.4063" style="stroke:#A80036;stroke-width:1.0;" width="10" x="332.5" y="1037.4531"/><rect fill="#FFFFFF" filter="url(#fgjzihjezx2nr)" height="30.3516" style="stroke:#A80036;stroke-width:1.0;" width="10" x="508.5" y="325.0703"/><rect fill="#FFFFFF" filter="url(#fgjzihjezx2nr)" height="30.3516" style="stroke:#A80036;stroke-width:1.0;" width="10" x="610.5" y="554.5313"/><rect fill="#FFFFFF" filter="url(#fgjzihjezx2nr)" height="227.1094" style="stroke:#A80036;stroke-width:1.0;" width="10" x="610.5" y="719.2891"/><rect fill="#FFFFFF" filter="url(#fgjzihjezx2nr)" height="104.0547" style="stroke:#A80036;stroke-width:1.0;" width="10" x="610.5" y="1067.8047"/><rect fill="#FFFFFF" filter="url(#fgjzihjezx2nr)" height="134.4063" style="stroke:#A80036;stroke-width:1.0;" width="10" x="831.5" y="584.8828"/><rect fill="#FFFFFF" filter="url(#fgjzihjezx2nr)" height="196.7578" style="stroke:#A80036;stroke-width:1.0;" width="10" x="831.5" y="749.6406"/><rect fill="#FFFFFF" filter="url(#fgjzihjezx2nr)" height="73.7031" style="stroke:#A80036;stroke-width:1.0;" width="10" x="831.5" y="1098.1563"/><rect fill="#FFFFFF" filter="url(#fgjzihjezx2nr)" height="73.7031" style="stroke:#A80036;stroke-width:1.0;" width="10" x="1052.5" y="615.2344"/><rect fill="#FFFFFF" filter="url(#fgjzihjezx2nr)" height="30" style="stroke:#A80036;stroke-width:1.0;" width="10" x="1199.5" y="494.1797"/><rect fill="#FFFFFF" filter="url(#fgjzihjezx2nr)" height="79.7031" style="stroke:#A80036;stroke-width:1.0;" width="10" x="1305" y="866.6953"/><rect fill="#FFFFFF" filter="url(#fgjzihjezx2nr)" height="198.4609" style="stroke:#000000;stroke-width:2.0;" width="263" x="282.5" y="241.0156"/><rect fill="#FFFFFF" filter="url(#fgjzihjezx2nr)" height="507.9219" style="stroke:#000000;stroke-width:2.0;" width="1307.5" x="282.5" y="453.4766"/><line style="stroke:#A80036;stroke-width:1.0;stroke-dasharray:5.0,5.0;" x1="49" x2="49" y1="89.6094" y2="1189.8594"/><line style="stroke:#A80036;stroke-width:1.0;stroke-dasharray:5.0,5.0;" x1="337.5" x2="337.5" y1="89.6094" y2="1189.8594"/><line style="stroke:#A80036;stroke-width:1.0;stroke-dasharray:5.0,5.0;" x1="513.5" x2="513.5" y1="89.6094" y2="1189.8594"/><line style="stroke:#A80036;stroke-width:1.0;stroke-dasharray:5.0,5.0;" x1="615.5" x2="615.5" y1="89.6094" y2="1189.8594"/><line style="stroke:#A80036;stroke-width:1.0;stroke-dasharray:5.0,5.0;" x1="836.5" x2="836.5" y1="89.6094" y2="1189.8594"/><line style="stroke:#A80036;stroke-width:1.0;stroke-dasharray:5.0,5.0;" x1="1057.5" x2="1057.5" y1="89.6094" y2="1189.8594"/><line style="stroke:#A80036;stroke-width:1.0;stroke-dasharray:5.0,5.0;" x1="1204.5" x2="1204.5" y1="89.6094" y2="1189.8594"/><line style="stroke:#A80036;stroke-width:1.0;stroke-dasharray:5.0,5.0;" x1="1309.5" x2="1309.5" y1="89.6094" y2="1189.8594"/><text fill="#000000" font-family="sans-serif" font-size="14" lengthAdjust="spacing" textLength="83" x="5" y="86.5332">Administrator</text><ellipse cx="49.5" cy="15" fill="#FEFECE" filter="url(#fgjzihjezx2nr)" rx="8" ry="8" style="stroke:#A80036;stroke-width:2.0;"/><path d="M49.5,23 L49.5,50 M36.5,31 L62.5,31 M49.5,50 L36.5,65 M49.5,50 L62.5,65 " fill="none" filter="url(#fgjzihjezx2nr)" style="stroke:#A80036;stroke-width:2.0;"/><text fill="#000000" font-family="sans-serif" font-size="14" lengthAdjust="spacing" textLength="83" x="5" y="1203.3926">Administrator</text><ellipse cx="49.5" cy="1216.4688" fill="#FEFECE" filter="url(#fgjzihjezx2nr)" rx="8" ry="8" style="stroke:#A80036;stroke-width:2.0;"/><path d="M49.5,1224.4688 L49.5,1251.4688 M36.5,1232.4688 L62.5,1232.4688 M49.5,1251.4688 L36.5,1266.4688 M49.5,1251.4688 L62.5,1266.4688 " fill="none" filter="url(#fgjzihjezx2nr)" style="stroke:#A80036;stroke-width:2.0;"/><rect fill="#FEFECE" filter="url(#fgjzihjezx2nr)" height="49.2188" style="stroke:#A80036;stroke-width:1.5;" width="86" x="292.5" y="35.3906"/><text fill="#000000" font-family="sans-serif" font-size="14" lengthAdjust="spacing" textLength="4" x="333.5" y="56.9238">:</text><text fill="#000000" font-family="sans-serif" font-size="14" lengthAdjust="spacing" textLength="72" x="299.5" y="74.5332">LoadCSVUI</text><rect fill="#FEFECE" filter="url(#fgjzihjezx2nr)" height="49.2188" style="stroke:#A80036;stroke-width:1.5;" width="86" x="292.5" y="1188.8594"/><text fill="#000000" font-family="sans-serif" font-size="14" lengthAdjust="spacing" textLength="4" x="333.5" y="1210.3926">:</text><text fill="#000000" font-family="sans-serif" font-size="14" lengthAdjust="spacing" textLength="72" x="299.5" y="1228.002">LoadCSVUI</text><rect fill="#FEFECE" filter="url(#fgjzihjezx2nr)" height="49.2188" style="stroke:#A80036;stroke-width:1.5;" width="40" x="491.5" y="35.3906"/><text fill="#000000" font-family="sans-serif" font-size="14" lengthAdjust="spacing" textLength="4" x="509.5" y="56.9238">:</text><text fill="#000000" font-family="sans-serif" font-size="14" lengthAdjust="spacing" textLength="26" x="498.5" y="74.5332">Utils</text><rect fill="#FEFECE" filter="url(#fgjzihjezx2nr)" height="49.2188" style="stroke:#A80036;stroke-width:1.5;" width="40" x="491.5" y="1188.8594"/><text fill="#000000" font-family="sans-serif" font-size="14" lengthAdjust="spacing" textLength="4" x="509.5" y="1210.3926">:</text><text fill="#000000" font-family="sans-serif" font-size="14" lengthAdjust="spacing" textLength="26" x="498.5" y="1228.002">Utils</text><rect fill="#FEFECE" filter="url(#fgjzihjezx2nr)" height="49.2188" style="stroke:#A80036;stroke-width:1.5;" width="136" x="545.5" y="35.3906"/><text fill="#000000" font-family="sans-serif" font-size="14" lengthAdjust="spacing" textLength="4" x="611.5" y="56.9238">:</text><text fill="#000000" font-family="sans-serif" font-size="14" lengthAdjust="spacing" textLength="122" x="552.5" y="74.5332">LoadCSVController</text><rect fill="#FEFECE" filter="url(#fgjzihjezx2nr)" height="49.2188" style="stroke:#A80036;stroke-width:1.5;" width="136" x="545.5" y="1188.8594"/><text fill="#000000" font-family="sans-serif" font-size="14" lengthAdjust="spacing" textLength="4" x="611.5" y="1210.3926">:</text><text fill="#000000" font-family="sans-serif" font-size="14" lengthAdjust="spacing" textLength="122" x="552.5" y="1228.002">LoadCSVController</text><rect fill="#FEFECE" filter="url(#fgjzihjezx2nr)" height="49.2188" style="stroke:#A80036;stroke-width:1.5;" width="74" x="797.5" y="35.3906"/><text fill="#000000" font-family="sans-serif" font-size="14" lengthAdjust="spacing" textLength="4" x="832.5" y="56.9238">:</text><text fill="#000000" font-family="sans-serif" font-size="14" lengthAdjust="spacing" textLength="60" x="804.5" y="74.5332">Company</text><rect fill="#FEFECE" filter="url(#fgjzihjezx2nr)" height="49.2188" style="stroke:#A80036;stroke-width:1.5;" width="74" x="797.5" y="1188.8594"/><text fill="#000000" font-family="sans-serif" font-size="14" lengthAdjust="spacing" textLength="4" x="832.5" y="1210.3926">:</text><text fill="#000000" font-family="sans-serif" font-size="14" lengthAdjust="spacing" textLength="60" x="804.5" y="1228.002">Company</text><rect fill="#FEFECE" filter="url(#fgjzihjezx2nr)" height="49.2188" style="stroke:#A80036;stroke-width:1.5;" width="70" x="1020.5" y="35.3906"/><text fill="#000000" font-family="sans-serif" font-size="14" lengthAdjust="spacing" textLength="4" x="1053.5" y="56.9238">:</text><text fill="#000000" font-family="sans-serif" font-size="14" lengthAdjust="spacing" textLength="56" x="1027.5" y="74.5332">SNSUser</text><rect fill="#FEFECE" filter="url(#fgjzihjezx2nr)" height="49.2188" style="stroke:#A80036;stroke-width:1.5;" width="70" x="1020.5" y="1188.8594"/><text fill="#000000" font-family="sans-serif" font-size="14" lengthAdjust="spacing" textLength="4" x="1053.5" y="1210.3926">:</text><text fill="#000000" font-family="sans-serif" font-size="14" lengthAdjust="spacing" textLength="56" x="1027.5" y="1228.002">SNSUser</text><rect fill="#FEFECE" filter="url(#fgjzihjezx2nr)" height="49.2188" style="stroke:#A80036;stroke-width:1.5;" width="92" x="1156.5" y="35.3906"/><text fill="#000000" font-family="sans-serif" font-size="14" lengthAdjust="spacing" textLength="4" x="1200.5" y="56.9238">:</text><text fill="#000000" font-family="sans-serif" font-size="14" lengthAdjust="spacing" textLength="78" x="1163.5" y="74.5332">SNSUserDto</text><rect fill="#FEFECE" filter="url(#fgjzihjezx2nr)" height="49.2188" style="stroke:#A80036;stroke-width:1.5;" width="92" x="1156.5" y="1188.8594"/><text fill="#000000" font-family="sans-serif" font-size="14" lengthAdjust="spacing" textLength="4" x="1200.5" y="1210.3926">:</text><text fill="#000000" font-family="sans-serif" font-size="14" lengthAdjust="spacing" textLength="78" x="1163.5" y="1228.002">SNSUserDto</text><rect fill="#FEFECE" filter="url(#fgjzihjezx2nr)" height="49.2188" style="stroke:#A80036;stroke-width:1.5;" width="91" x="1262.5" y="35.3906"/><text fill="#000000" font-family="sans-serif" font-size="14" lengthAdjust="spacing" textLength="4" x="1306" y="56.9238">:</text><text fill="#000000" font-family="sans-serif" font-size="14" lengthAdjust="spacing" textLength="77" x="1269.5" y="74.5332">AuthFacade</text><rect fill="#FEFECE" filter="url(#fgjzihjezx2nr)" height="49.2188" style="stroke:#A80036;stroke-width:1.5;" width="91" x="1262.5" y="1188.8594"/><text fill="#000000" font-family="sans-serif" font-size="14" lengthAdjust="spacing" textLength="4" x="1306" y="1210.3926">:</text><text fill="#000000" font-family="sans-serif" font-size="14" lengthAdjust="spacing" textLength="77" x="1269.5" y="1228.002">AuthFacade</text><rect fill="#FFFFFF" filter="url(#fgjzihjezx2nr)" height="1081.25" style="stroke:#A80036;stroke-width:1.0;" width="10" x="44.5" y="99.6094"/><rect fill="#FFFFFF" filter="url(#fgjzihjezx2nr)" height="30.3516" style="stroke:#A80036;stroke-width:1.0;" width="10" x="332.5" y="121.9609"/><rect fill="#FFFFFF" filter="url(#fgjzihjezx2nr)" height="824.4375" style="stroke:#A80036;stroke-width:1.0;" width="10" x="332.5" y="182.6641"/><rect fill="#FFFFFF" filter="url(#fgjzihjezx2nr)" height="134.4063" style="stroke:#A80036;stroke-width:1.0;" width="10" x="332.5" y="1037.4531"/><rect fill="#FFFFFF" filter="url(#fgjzihjezx2nr)" height="30.3516" style="stroke:#A80036;stroke-width:1.0;" width="10" x="508.5" y="325.0703"/><rect fill="#FFFFFF" filter="url(#fgjzihjezx2nr)" height="30.3516" style="stroke:#A80036;stroke-width:1.0;" width="10" x="610.5" y="554.5313"/><rect fill="#FFFFFF" filter="url(#fgjzihjezx2nr)" height="227.1094" style="stroke:#A80036;stroke-width:1.0;" width="10" x="610.5" y="719.2891"/><rect fill="#FFFFFF" filter="url(#fgjzihjezx2nr)" height="104.0547" style="stroke:#A80036;stroke-width:1.0;" width="10" x="610.5" y="1067.8047"/><rect fill="#FFFFFF" filter="url(#fgjzihjezx2nr)" height="134.4063" style="stroke:#A80036;stroke-width:1.0;" width="10" x="831.5" y="584.8828"/><rect fill="#FFFFFF" filter="url(#fgjzihjezx2nr)" height="196.7578" style="stroke:#A80036;stroke-width:1.0;" width="10" x="831.5" y="749.6406"/><rect fill="#FFFFFF" filter="url(#fgjzihjezx2nr)" height="73.7031" style="stroke:#A80036;stroke-width:1.0;" width="10" x="831.5" y="1098.1563"/><rect fill="#FFFFFF" filter="url(#fgjzihjezx2nr)" height="73.7031" style="stroke:#A80036;stroke-width:1.0;" width="10" x="1052.5" y="615.2344"/><rect fill="#FFFFFF" filter="url(#fgjzihjezx2nr)" height="30" style="stroke:#A80036;stroke-width:1.0;" width="10" x="1199.5" y="494.1797"/><rect fill="#FFFFFF" filter="url(#fgjzihjezx2nr)" height="79.7031" style="stroke:#A80036;stroke-width:1.0;" width="10" x="1305" y="866.6953"/><polygon fill="#A80036" points="320.5,117.9609,330.5,121.9609,320.5,125.9609,324.5,121.9609" style="stroke:#A80036;stroke-width:1.0;"/><line style="stroke:#A80036;stroke-width:1.0;" x1="54.5" x2="326.5" y1="121.9609" y2="121.9609"/><text fill="#000000" font-family="sans-serif" font-size="13" font-weight="bold" lengthAdjust="spacing" textLength="7" x="61.5" y="117.1045">1</text><text fill="#000000" font-family="sans-serif" font-size="13" lengthAdjust="spacing" textLength="248" x="72.5" y="117.1045">Asks to load a CSV file with SNS User info</text><polygon fill="#A80036" points="65.5,148.3125,55.5,152.3125,65.5,156.3125,61.5,152.3125" style="stroke:#A80036;stroke-width:1.0;"/><line style="stroke:#A80036;stroke-width:1.0;stroke-dasharray:2.0,2.0;" x1="59.5" x2="336.5" y1="152.3125" y2="152.3125"/><text fill="#000000" font-family="sans-serif" font-size="13" font-weight="bold" lengthAdjust="spacing" textLength="7" x="71.5" y="147.4561">2</text><text fill="#000000" font-family="sans-serif" font-size="13" lengthAdjust="spacing" textLength="159" x="82.5" y="147.4561">request path of the CSV file</text><polygon fill="#A80036" points="320.5,178.6641,330.5,182.6641,320.5,186.6641,324.5,182.6641" style="stroke:#A80036;stroke-width:1.0;"/><line style="stroke:#A80036;stroke-width:1.0;" x1="54.5" x2="326.5" y1="182.6641" y2="182.6641"/><text fill="#000000" font-family="sans-serif" font-size="13" font-weight="bold" lengthAdjust="spacing" textLength="7" x="61.5" y="177.8076">3</text><text fill="#000000" font-family="sans-serif" font-size="13" lengthAdjust="spacing" textLength="61" x="72.5" y="177.8076">types path</text><line style="stroke:#A80036;stroke-width:1.0;" x1="342.5" x2="384.5" y1="213.0156" y2="213.0156"/><line style="stroke:#A80036;stroke-width:1.0;" x1="384.5" x2="384.5" y1="213.0156" y2="226.0156"/><line style="stroke:#A80036;stroke-width:1.0;" x1="343.5" x2="384.5" y1="226.0156" y2="226.0156"/><polygon fill="#A80036" points="353.5,222.0156,343.5,226.0156,353.5,230.0156,349.5,226.0156" style="stroke:#A80036;stroke-width:1.0;"/><text fill="#000000" font-family="sans-serif" font-size="13" font-weight="bold" lengthAdjust="spacing" textLength="7" x="349.5" y="208.1592">4</text><text fill="#000000" font-family="sans-serif" font-size="13" lengthAdjust="spacing" textLength="138" x="360.5" y="208.1592">validateFileFormat(path)</text><path d="M282.5,241.0156 L355.5,241.0156 L355.5,249.0156 L345.5,259.0156 L282.5,259.0156 L282.5,241.0156 " fill="#EEEEEE" style="stroke:#000000;stroke-width:1.0;"/><rect fill="none" height="198.4609" style="stroke:#000000;stroke-width:2.0;" width="263" x="282.5" y="241.0156"/><text fill="#000000" font-family="sans-serif" font-size="13" font-weight="bold" lengthAdjust="spacing" textLength="28" x="297.5" y="255.5107">loop</text><text fill="#000000" font-family="sans-serif" font-size="11" font-weight="bold" lengthAdjust="spacing" textLength="138" x="370.5" y="254.4346">[while file has new lines]</text><line style="stroke:#A80036;stroke-width:1.0;" x1="342.5" x2="384.5" y1="286.7188" y2="286.7188"/><line style="stroke:#A80036;stroke-width:1.0;" x1="384.5" x2="384.5" y1="286.7188" y2="299.7188"/><line style="stroke:#A80036;stroke-width:1.0;" x1="337.5" x2="384.5" y1="299.7188" y2="299.7188"/><polygon fill="#A80036" points="347.5,295.7188,337.5,299.7188,347.5,303.7188,343.5,299.7188" style="stroke:#A80036;stroke-width:1.0;"/><text fill="#000000" font-family="sans-serif" font-size="13" font-weight="bold" lengthAdjust="spacing" textLength="7" x="349.5" y="281.8623">5</text><text fill="#000000" font-family="sans-serif" font-size="13" lengthAdjust="spacing" textLength="141" x="360.5" y="281.8623">validateCSVData(values)</text><polygon fill="#A80036" points="496.5,321.0703,506.5,325.0703,496.5,329.0703,500.5,325.0703" style="stroke:#A80036;stroke-width:1.0;"/><line style="stroke:#A80036;stroke-width:1.0;" x1="342.5" x2="502.5" y1="325.0703" y2="325.0703"/><text fill="#000000" font-family="sans-serif" font-size="13" font-weight="bold" lengthAdjust="spacing" textLength="7" x="349.5" y="320.2139">6</text><text fill="#000000" font-family="sans-serif" font-size="13" lengthAdjust="spacing" textLength="112" x="360.5" y="320.2139">passwordGenerator</text><polygon fill="#A80036" points="353.5,351.4219,343.5,355.4219,353.5,359.4219,349.5,355.4219" style="stroke:#A80036;stroke-width:1.0;"/><line style="stroke:#A80036;stroke-width:1.0;" x1="347.5" x2="512.5" y1="355.4219" y2="355.4219"/><text fill="#000000" font-family="sans-serif" font-size="13" font-weight="bold" lengthAdjust="spacing" textLength="7" x="359.5" y="350.5654">7</text><text fill="#000000" font-family="sans-serif" font-size="13" lengthAdjust="spacing" textLength="78" x="370.5" y="350.5654">returns String</text><line style="stroke:#A80036;stroke-width:1.0;" x1="342.5" x2="384.5" y1="423.4766" y2="423.4766"/><line style="stroke:#A80036;stroke-width:1.0;" x1="384.5" x2="384.5" y1="423.4766" y2="436.4766"/><line style="stroke:#A80036;stroke-width:1.0;" x1="337.5" x2="384.5" y1="436.4766" y2="436.4766"/><polygon fill="#A80036" points="347.5,432.4766,337.5,436.4766,347.5,440.4766,343.5,436.4766" style="stroke:#A80036;stroke-width:1.0;"/><text fill="#000000" font-family="sans-serif" font-size="13" font-weight="bold" lengthAdjust="spacing" textLength="7" x="349.5" y="402.2686">8</text><text fill="#000000" font-family="sans-serif" font-size="13" lengthAdjust="spacing" textLength="105" x="360.5" y="385.917">saves data into an</text><text fill="#000000" font-family="sans-serif" font-size="13" lengthAdjust="spacing" textLength="102" x="360.5" y="402.2686">ArrayList&lt;String&gt;</text><text fill="#000000" font-family="sans-serif" font-size="13" lengthAdjust="spacing" textLength="84" x="360.5" y="418.6201">called csvData</text><path d="M282.5,453.4766 L355.5,453.4766 L355.5,461.4766 L345.5,471.4766 L282.5,471.4766 L282.5,453.4766 " fill="#EEEEEE" style="stroke:#000000;stroke-width:1.0;"/><rect fill="none" height="507.9219" style="stroke:#000000;stroke-width:2.0;" width="1307.5" x="282.5" y="453.4766"/><text fill="#000000" font-family="sans-serif" font-size="13" font-weight="bold" lengthAdjust="spacing" textLength="28" x="297.5" y="467.9717">loop</text><text fill="#000000" font-family="sans-serif" font-size="11" font-weight="bold" lengthAdjust="spacing" textLength="163" x="370.5" y="466.8955">[while csvData has new lines]</text><polygon fill="#A80036" points="1187.5,490.1797,1197.5,494.1797,1187.5,498.1797,1191.5,494.1797" style="stroke:#A80036;stroke-width:1.0;"/><line style="stroke:#A80036;stroke-width:1.0;" x1="342.5" x2="1193.5" y1="494.1797" y2="494.1797"/><text fill="#000000" font-family="sans-serif" font-size="13" font-weight="bold" lengthAdjust="spacing" textLength="7" x="349.5" y="489.3232">9</text><text fill="#000000" font-family="sans-serif" font-size="13" lengthAdjust="spacing" textLength="140" x="360.5" y="489.3232">fillSNSUserDto(csvData)</text><polygon fill="#A80036" points="598.5,550.5313,608.5,554.5313,598.5,558.5313,602.5,554.5313" style="stroke:#A80036;stroke-width:1.0;"/><line style="stroke:#A80036;stroke-width:1.0;" x1="342.5" x2="604.5" y1="554.5313" y2="554.5313"/><text fill="#000000" font-family="sans-serif" font-size="13" font-weight="bold" lengthAdjust="spacing" textLength="14" x="349.5" y="549.6748">10</text><text fill="#000000" font-family="sans-serif" font-size="13" lengthAdjust="spacing" textLength="94" x="367.5" y="549.6748">createSNSUser(</text><text fill="#000000" font-family="sans-serif" font-size="13" font-weight="bold" lengthAdjust="spacing" textLength="76" x="461.5" y="549.6748">SNSUserDto</text><text fill="#000000" font-family="sans-serif" font-size="13" lengthAdjust="spacing" textLength="4" x="537.5" y="549.6748">)</text><polygon fill="#A80036" points="819.5,580.8828,829.5,584.8828,819.5,588.8828,823.5,584.8828" style="stroke:#A80036;stroke-width:1.0;"/><line style="stroke:#A80036;stroke-width:1.0;" x1="615.5" x2="825.5" y1="584.8828" y2="584.8828"/><text fill="#000000" font-family="sans-serif" font-size="13" font-weight="bold" lengthAdjust="spacing" textLength="14" x="622.5" y="580.0264">11</text><text fill="#000000" font-family="sans-serif" font-size="13" lengthAdjust="spacing" textLength="94" x="640.5" y="580.0264">createSNSUser(</text><text fill="#000000" font-family="sans-serif" font-size="13" font-weight="bold" lengthAdjust="spacing" textLength="76" x="734.5" y="580.0264">SNSUserDto</text><text fill="#000000" font-family="sans-serif" font-size="13" lengthAdjust="spacing" textLength="4" x="810.5" y="580.0264">)</text><polygon fill="#A80036" points="1040.5,611.2344,1050.5,615.2344,1040.5,619.2344,1044.5,615.2344" style="stroke:#A80036;stroke-width:1.0;"/><line style="stroke:#A80036;stroke-width:1.0;" x1="841.5" x2="1046.5" y1="615.2344" y2="615.2344"/><text fill="#000000" font-family="sans-serif" font-size="13" font-weight="bold" lengthAdjust="spacing" textLength="14" x="848.5" y="610.3779">12</text><text fill="#000000" font-family="sans-serif" font-size="13" lengthAdjust="spacing" textLength="94" x="866.5" y="610.3779">createSNSUser(</text><text fill="#000000" font-family="sans-serif" font-size="13" font-weight="bold" lengthAdjust="spacing" textLength="76" x="960.5" y="610.3779">SNSUserDto</text><text fill="#000000" font-family="sans-serif" font-size="13" lengthAdjust="spacing" textLength="4" x="1036.5" y="610.3779">)</text><line style="stroke:#A80036;stroke-width:1.0;" x1="1062.5" x2="1104.5" y1="645.5859" y2="645.5859"/><line style="stroke:#A80036;stroke-width:1.0;" x1="1104.5" x2="1104.5" y1="645.5859" y2="658.5859"/><line style="stroke:#A80036;stroke-width:1.0;" x1="1063.5" x2="1104.5" y1="658.5859" y2="658.5859"/><polygon fill="#A80036" points="1073.5,654.5859,1063.5,658.5859,1073.5,662.5859,1069.5,658.5859" style="stroke:#A80036;stroke-width:1.0;"/><text fill="#000000" font-family="sans-serif" font-size="13" font-weight="bold" lengthAdjust="spacing" textLength="14" x="1069.5" y="640.7295">13</text><text fill="#000000" font-family="sans-serif" font-size="13" lengthAdjust="spacing" textLength="105" x="1087.5" y="640.7295">validateSNSUser()</text><polygon fill="#A80036" points="852.5,684.9375,842.5,688.9375,852.5,692.9375,848.5,688.9375" style="stroke:#A80036;stroke-width:1.0;"/><line style="stroke:#A80036;stroke-width:1.0;" x1="846.5" x2="1056.5" y1="688.9375" y2="688.9375"/><text fill="#000000" font-family="sans-serif" font-size="13" font-weight="bold" lengthAdjust="spacing" textLength="14" x="858.5" y="684.0811">14</text><text fill="#000000" font-family="sans-serif" font-size="13" lengthAdjust="spacing" textLength="98" x="876.5" y="684.0811">returns SNSUser</text><polygon fill="#A80036" points="598.5,715.2891,608.5,719.2891,598.5,723.2891,602.5,719.2891" style="stroke:#A80036;stroke-width:1.0;"/><line style="stroke:#A80036;stroke-width:1.0;" x1="342.5" x2="604.5" y1="719.2891" y2="719.2891"/><text fill="#000000" font-family="sans-serif" font-size="13" font-weight="bold" lengthAdjust="spacing" textLength="14" x="349.5" y="714.4326">15</text><text fill="#000000" font-family="sans-serif" font-size="13" lengthAdjust="spacing" textLength="84" x="367.5" y="714.4326">saveSNSUser(</text><text fill="#000000" font-family="sans-serif" font-size="13" font-weight="bold" lengthAdjust="spacing" textLength="76" x="451.5" y="714.4326">SNSUserDto</text><text fill="#000000" font-family="sans-serif" font-size="13" lengthAdjust="spacing" textLength="4" x="527.5" y="714.4326">)</text><polygon fill="#A80036" points="819.5,745.6406,829.5,749.6406,819.5,753.6406,823.5,749.6406" style="stroke:#A80036;stroke-width:1.0;"/><line style="stroke:#A80036;stroke-width:1.0;" x1="620.5" x2="825.5" y1="749.6406" y2="749.6406"/><text fill="#000000" font-family="sans-serif" font-size="13" font-weight="bold" lengthAdjust="spacing" textLength="14" x="627.5" y="744.7842">16</text><text fill="#000000" font-family="sans-serif" font-size="13" lengthAdjust="spacing" textLength="84" x="645.5" y="744.7842">saveSNSUser(</text><text fill="#000000" font-family="sans-serif" font-size="13" font-weight="bold" lengthAdjust="spacing" textLength="76" x="729.5" y="744.7842">SNSUserDto</text><text fill="#000000" font-family="sans-serif" font-size="13" lengthAdjust="spacing" textLength="4" x="805.5" y="744.7842">)</text><line style="stroke:#A80036;stroke-width:1.0;" x1="841.5" x2="883.5" y1="779.9922" y2="779.9922"/><line style="stroke:#A80036;stroke-width:1.0;" x1="883.5" x2="883.5" y1="779.9922" y2="792.9922"/><line style="stroke:#A80036;stroke-width:1.0;" x1="842.5" x2="883.5" y1="792.9922" y2="792.9922"/><polygon fill="#A80036" points="852.5,788.9922,842.5,792.9922,852.5,796.9922,848.5,792.9922" style="stroke:#A80036;stroke-width:1.0;"/><text fill="#000000" font-family="sans-serif" font-size="13" font-weight="bold" lengthAdjust="spacing" textLength="14" x="848.5" y="775.1357">17</text><text fill="#000000" font-family="sans-serif" font-size="13" lengthAdjust="spacing" textLength="123" x="866.5" y="775.1357">checks for duplicates</text><line style="stroke:#A80036;stroke-width:1.0;" x1="841.5" x2="883.5" y1="823.3438" y2="823.3438"/><line style="stroke:#A80036;stroke-width:1.0;" x1="883.5" x2="883.5" y1="823.3438" y2="836.3438"/><line style="stroke:#A80036;stroke-width:1.0;" x1="842.5" x2="883.5" y1="836.3438" y2="836.3438"/><polygon fill="#A80036" points="852.5,832.3438,842.5,836.3438,852.5,840.3438,848.5,836.3438" style="stroke:#A80036;stroke-width:1.0;"/><text fill="#000000" font-family="sans-serif" font-size="13" font-weight="bold" lengthAdjust="spacing" textLength="14" x="848.5" y="818.4873">18</text><text fill="#000000" font-family="sans-serif" font-size="13" lengthAdjust="spacing" textLength="94" x="866.5" y="818.4873">stores SNSUser</text><polygon fill="#A80036" points="1293,862.6953,1303,866.6953,1293,870.6953,1297,866.6953" style="stroke:#A80036;stroke-width:1.0;"/><line style="stroke:#A80036;stroke-width:1.0;" x1="841.5" x2="1299" y1="866.6953" y2="866.6953"/><text fill="#000000" font-family="sans-serif" font-size="13" font-weight="bold" lengthAdjust="spacing" textLength="14" x="848.5" y="861.8389">19</text><text fill="#000000" font-family="sans-serif" font-size="13" lengthAdjust="spacing" textLength="238" x="866.5" y="861.8389">addUserWithRole(name,email,pwd,roleId)</text><line style="stroke:#A80036;stroke-width:1.0;" x1="1315" x2="1357" y1="897.0469" y2="897.0469"/><line style="stroke:#A80036;stroke-width:1.0;" x1="1357" x2="1357" y1="897.0469" y2="910.0469"/><line style="stroke:#A80036;stroke-width:1.0;" x1="1316" x2="1357" y1="910.0469" y2="910.0469"/><polygon fill="#A80036" points="1326,906.0469,1316,910.0469,1326,914.0469,1322,910.0469" style="stroke:#A80036;stroke-width:1.0;"/><text fill="#000000" font-family="sans-serif" font-size="13" font-weight="bold" lengthAdjust="spacing" textLength="14" x="1322" y="892.1904">20</text><text fill="#000000" font-family="sans-serif" font-size="13" lengthAdjust="spacing" textLength="238" x="1340" y="892.1904">addUserWithRole(name,email,pwd,roleId)</text><line style="stroke:#A80036;stroke-width:1.0;" x1="1315" x2="1357" y1="945.3984" y2="945.3984"/><line style="stroke:#A80036;stroke-width:1.0;" x1="1357" x2="1357" y1="945.3984" y2="958.3984"/><line style="stroke:#A80036;stroke-width:1.0;" x1="1310" x2="1357" y1="958.3984" y2="958.3984"/><polygon fill="#A80036" points="1320,954.3984,1310,958.3984,1320,962.3984,1316,958.3984" style="stroke:#A80036;stroke-width:1.0;"/><text fill="#000000" font-family="sans-serif" font-size="13" font-weight="bold" lengthAdjust="spacing" textLength="14" x="1322" y="940.542">21</text><text fill="#000000" font-family="sans-serif" font-size="13" lengthAdjust="spacing" textLength="101" x="1340" y="940.542">existsUser(email)</text><polygon fill="#A80036" points="65.5,1003.1016,55.5,1007.1016,65.5,1011.1016,61.5,1007.1016" style="stroke:#A80036;stroke-width:1.0;"/><line style="stroke:#A80036;stroke-width:1.0;" x1="59.5" x2="336.5" y1="1007.1016" y2="1007.1016"/><text fill="#000000" font-family="sans-serif" font-size="13" font-weight="bold" lengthAdjust="spacing" textLength="14" x="71.5" y="994.0693">22</text><text fill="#000000" font-family="sans-serif" font-size="13" lengthAdjust="spacing" textLength="198" x="89.5" y="985.8936">Shows how many SNSUsers were</text><text fill="#000000" font-family="sans-serif" font-size="13" lengthAdjust="spacing" textLength="215" x="89.5" y="1002.2451">saved and how many were duplicates</text><polygon fill="#A80036" points="320.5,1033.4531,330.5,1037.4531,320.5,1041.4531,324.5,1037.4531" style="stroke:#A80036;stroke-width:1.0;"/><line style="stroke:#A80036;stroke-width:1.0;" x1="54.5" x2="326.5" y1="1037.4531" y2="1037.4531"/><text fill="#000000" font-family="sans-serif" font-size="13" font-weight="bold" lengthAdjust="spacing" textLength="14" x="61.5" y="1032.5967">23</text><text fill="#000000" font-family="sans-serif" font-size="13" lengthAdjust="spacing" textLength="188" x="79.5" y="1032.5967">Asks to load a list of SNS Users</text><polygon fill="#A80036" points="598.5,1063.8047,608.5,1067.8047,598.5,1071.8047,602.5,1067.8047" style="stroke:#A80036;stroke-width:1.0;"/><line style="stroke:#A80036;stroke-width:1.0;" x1="342.5" x2="604.5" y1="1067.8047" y2="1067.8047"/><text fill="#000000" font-family="sans-serif" font-size="13" font-weight="bold" lengthAdjust="spacing" textLength="14" x="349.5" y="1062.9482">24</text><text fill="#000000" font-family="sans-serif" font-size="13" lengthAdjust="spacing" textLength="101" x="367.5" y="1062.9482">getSNSUserList()</text><polygon fill="#A80036" points="819.5,1094.1563,829.5,1098.1563,819.5,1102.1563,823.5,1098.1563" style="stroke:#A80036;stroke-width:1.0;"/><line style="stroke:#A80036;stroke-width:1.0;" x1="620.5" x2="825.5" y1="1098.1563" y2="1098.1563"/><text fill="#000000" font-family="sans-serif" font-size="13" font-weight="bold" lengthAdjust="spacing" textLength="14" x="627.5" y="1093.2998">25</text><text fill="#000000" font-family="sans-serif" font-size="13" lengthAdjust="spacing" textLength="101" x="645.5" y="1093.2998">getSNSUserList()</text><line style="stroke:#A80036;stroke-width:1.0;" x1="841.5" x2="883.5" y1="1128.5078" y2="1128.5078"/><line style="stroke:#A80036;stroke-width:1.0;" x1="883.5" x2="883.5" y1="1128.5078" y2="1141.5078"/><line style="stroke:#A80036;stroke-width:1.0;" x1="842.5" x2="883.5" y1="1141.5078" y2="1141.5078"/><polygon fill="#A80036" points="852.5,1137.5078,842.5,1141.5078,852.5,1145.5078,848.5,1141.5078" style="stroke:#A80036;stroke-width:1.0;"/><text fill="#000000" font-family="sans-serif" font-size="13" font-weight="bold" lengthAdjust="spacing" textLength="14" x="848.5" y="1123.6514">26</text><text fill="#000000" font-family="sans-serif" font-size="13" lengthAdjust="spacing" textLength="175" x="866.5" y="1123.6514">returns ArrayList of SNSUsers</text><polygon fill="#A80036" points="65.5,1167.8594,55.5,1171.8594,65.5,1175.8594,61.5,1171.8594" style="stroke:#A80036;stroke-width:1.0;"/><line style="stroke:#A80036;stroke-width:1.0;" x1="59.5" x2="336.5" y1="1171.8594" y2="1171.8594"/><text fill="#000000" font-family="sans-serif" font-size="13" font-weight="bold" lengthAdjust="spacing" textLength="14" x="71.5" y="1167.0029">27</text><text fill="#000000" font-family="sans-serif" font-size="13" lengthAdjust="spacing" textLength="143" x="89.5" y="1167.0029">Shows list of SNS Users</text><!--MD5=[3688b0450dae8437cb3043c739b7d97a]
@startuml

autonumber
actor "Administrator" as USER
participant ":\nLoadCSVUI" as UI
participant ":\nUtils" as UT
participant ":\nLoadCSVController" as CTRL
participant ":\nCompany" as COMP
participant ":\nSNSUser" as CLIENT
participant ":\nSNSUserDto" as DTO
participant ":\nAuthFacade" as AUTH

activate USER
USER -> UI : Asks to load a CSV file with SNS User info
activate UI
UI - -> USER : request path of the CSV file
deactivate UI

USER -> UI : types path
activate UI

UI -> UI : validateFileFormat(path)
loop while file has new lines
UI -> UI : validateCSVData(values)


deactivate UT
UI -> UT : passwordGenerator
activate UT
UT -> UI : returns String
deactivate UT
UI -> UI : saves data into an \nArrayList<String>\ncalled csvData
deactivate UT
end loop
loop while csvData has new lines
UI -> DTO : fillSNSUserDto(csvData)
activate DTO
deactivate DTO
UI -> CTRL : createSNSUser(**SNSUserDto**)
activate CTRL
CTRL -> COMP: createSNSUser(**SNSUserDto**)
deactivate CTRL
activate COMP
COMP -> CLIENT: createSNSUser(**SNSUserDto**)
activate CLIENT
CLIENT -> CLIENT: validateSNSUser()
CLIENT -> COMP: returns SNSUser
deactivate CLIENT

UI -> CTRL : saveSNSUser(**SNSUserDto**)
deactivate COMP
activate CTRL
CTRL -> COMP: saveSNSUser(**SNSUserDto**)
activate COMP

COMP -> COMP: checks for duplicates
COMP -> COMP: stores SNSUser
COMP -> AUTH: addUserWithRole(name,email,pwd,roleId)
activate AUTH
AUTH -> AUTH: addUserWithRole(name,email,pwd,roleId)
AUTH -> AUTH: existsUser(email)
deactivate AUTH
deactivate COMP
deactivate CTRL
end loop


UI -> USER: Shows how many SNSUsers were\nsaved and how many were duplicates
deactivate CTRL
deactivate UI

USER -> UI: Asks to load a list of SNS Users
activate UI
UI -> CTRL: getSNSUserList()
activate CTRL
CTRL -> COMP: getSNSUserList()

activate COMP
COMP -> COMP: returns ArrayList of SNSUsers

UI -> USER: Shows list of SNS Users
deactivate COMP
deactivate CTRL
deactivate UI
@enduml

PlantUML version 1.2022.1(Tue Feb 01 18:19:58 GMT 2022)
(GPL source distribution)
Java Runtime: OpenJDK Runtime Environment
JVM: OpenJDK 64-Bit Server VM
Default Encoding: Cp1252
Language: en
Country: US
--></g></svg>